<?xml version="1.0" standalone="no"?>
<!DOCTYPE svg PUBLIC "-//W3C//DTD SVG 20010904//EN"
 "http://www.w3.org/TR/2001/REC-SVG-20010904/DTD/svg10.dtd">
<svg version="1.0" xmlns="http://www.w3.org/2000/svg"
 width="378.000000pt" height="378.000000pt" viewBox="0 0 378.000000 378.000000"
 preserveAspectRatio="xMidYMid meet">
<metadata>
Created by potrace 1.11, written by Peter Selinger 2001-2013
</metadata>
<g transform="translate(0.000000,378.000000) scale(0.100000,-0.100000)"
fill="#000000" stroke="none">
<path d="M130 3772 c0 -4 5 -13 12 -20 9 -9 8 -12 -7 -12 -17 -1 -18 -2 -5
-13 10 -8 16 -33 18 -76 l2 -63 -28 6 c-27 5 -27 5 3 -9 l30 -13 -25 -11 c-18
-7 -20 -10 -7 -10 9 -1 17 -8 17 -16 0 -9 -6 -12 -17 -9 -10 3 -8 0 5 -8 16
-10 19 -17 11 -25 -8 -8 -8 -13 0 -17 6 -4 11 -14 11 -22 0 -8 -4 -12 -10 -9
-6 3 -7 -1 -4 -9 4 -12 0 -16 -17 -17 -21 -1 -21 -2 -4 -6 31 -8 38 -27 12
-35 l-22 -6 23 -1 c19 -1 22 -7 22 -40 0 -30 -6 -44 -22 -56 l-23 -17 23 7
c20 6 22 3 22 -29 0 -29 -3 -34 -17 -30 -16 5 -16 4 1 -10 15 -12 19 -30 20
-100 1 -65 5 -87 16 -91 13 -5 13 -7 0 -15 -13 -9 -13 -10 0 -10 13 0 13 -2 1
-9 -11 -7 -12 -13 -3 -23 9 -11 9 -17 0 -26 -9 -9 -9 -12 -1 -12 15 0 12 -190
-2 -190 -5 0 -3 -5 5 -10 12 -8 13 -11 1 -19 -9 -6 -9 -10 -2 -12 15 -5 22
-169 7 -169 -7 0 -7 -3 -1 -8 14 -10 17 -26 18 -104 1 -36 5 -64 9 -61 5 2 8
-5 8 -16 0 -10 -6 -22 -12 -24 -9 -4 -8 -6 2 -6 13 -1 15 -28 18 -174 1 -94 5
-182 8 -194 4 -16 2 -23 -7 -23 -11 0 -11 -3 1 -11 11 -8 12 -12 2 -16 -17 -7
-15 -23 2 -23 11 0 13 -7 6 -29 -4 -16 -5 -32 -2 -36 4 -4 -2 -13 -12 -21 -15
-10 -16 -14 -5 -14 10 0 16 -11 17 -32 1 -18 4 -51 7 -73 3 -22 7 -71 10 -110
2 -38 6 -105 9 -149 4 -52 2 -83 -5 -92 -9 -11 -8 -18 1 -28 6 -8 10 -30 9
-48 -2 -18 1 -40 6 -47 5 -10 1 -20 -15 -33 -21 -17 -21 -18 -2 -18 25 0 43
-45 31 -77 -5 -13 -4 -25 1 -28 5 -3 0 -15 -10 -25 -25 -25 -25 -36 0 -57 15
-13 17 -20 8 -30 -8 -10 -8 -20 1 -39 6 -14 14 -46 17 -71 3 -26 7 -50 10 -54
2 -4 -2 -10 -8 -12 -7 -3 -4 -6 7 -7 19 -1 19 -1 2 -11 -18 -10 -18 -11 0 -25
11 -8 13 -13 6 -14 -21 0 -15 -20 6 -20 26 0 68 70 49 81 -10 7 -10 9 0 9 6 0
12 11 12 25 0 15 6 25 14 25 8 0 18 4 21 10 3 5 0 7 -8 4 -11 -4 -13 9 -13 59
1 35 -4 70 -10 78 -15 18 -25 97 -13 105 5 3 9 -2 9 -10 0 -9 5 -16 10 -16 22
0 -4 85 -32 104 -17 12 -21 25 -21 73 0 32 -3 63 -7 68 -13 17 -19 84 -9 91 6
3 7 13 3 23 -5 9 -8 48 -9 86 0 53 4 72 15 77 12 5 12 7 -3 7 -14 1 -16 5 -8
20 6 10 7 21 4 25 -4 4 -9 14 -11 24 -6 26 -12 120 -6 100 9 -29 21 -20 21 15
0 17 -2 27 -4 20 -5 -13 -33 -6 -33 9 0 5 4 7 9 4 5 -4 7 11 4 34 -5 38 9 57
20 28 3 -8 6 -7 6 4 1 9 -3 19 -9 23 -5 3 -7 12 -3 21 3 9 0 14 -8 12 -16 -3
-13 33 3 43 6 4 8 11 4 17 -3 5 1 29 9 52 12 35 13 46 3 58 -9 11 -13 60 -13
166 -1 83 -4 157 -8 163 -5 7 -8 39 -8 70 1 84 -4 155 -13 181 -4 13 -3 28 2
35 5 7 12 25 14 40 6 32 -17 182 -33 212 -6 13 -9 103 -6 248 2 125 0 230 -5
233 -4 3 -5 10 -2 16 4 6 0 14 -7 19 -8 5 -9 9 -4 9 6 0 10 16 10 37 0 56 -20
50 -23 -7 -2 -33 3 -58 14 -75 10 -15 12 -25 5 -25 -6 0 -11 6 -11 13 0 8 -4
7 -10 -3 -8 -12 -10 -11 -10 7 0 17 -4 21 -17 16 -11 -4 -14 -3 -9 5 4 7 2 12
-3 12 -6 0 -11 5 -11 10 0 14 27 12 33 -2 3 -7 6 -3 6 10 1 13 -3 20 -9 17
-16 -10 -30 42 -29 109 1 34 -2 72 -6 85 -4 13 -2 28 5 36 10 12 10 18 0 30
-7 8 -10 24 -7 35 4 16 0 20 -19 20 -13 0 -24 -4 -24 -8z m80 -392 c0 -5 -5
-10 -11 -10 -5 0 -7 5 -4 10 3 6 8 10 11 10 2 0 4 -4 4 -10z m81 -1137 c7 -7
6 -14 -1 -18 -7 -5 -9 -20 -5 -41 3 -21 2 -34 -5 -34 -5 0 -11 17 -11 38 -1
20 -3 48 -5 62 -4 35 8 63 14 30 2 -14 8 -30 13 -37z m4 -383 c3 -5 1 -10 -4
-10 -6 0 -11 5 -11 10 0 6 2 10 4 10 3 0 8 -4 11 -10z m75 -1100 c0 -5 -4 -10
-10 -10 -5 0 -10 5 -10 10 0 6 5 10 10 10 6 0 10 -4 10 -10z"/>
<path d="M232 3754 c-1 -13 0 -24 2 -24 7 0 14 40 7 44 -4 3 -8 -6 -9 -20z"/>
<path d="M290 3738 c0 -24 7 -144 15 -268 9 -124 18 -272 20 -330 3 -58 10
-152 15 -210 10 -104 12 -146 30 -635 5 -137 16 -349 24 -470 15 -210 48 -876
50 -997 1 -32 4 -58 8 -58 7 0 18 9 118 99 25 22 50 39 57 36 7 -2 10 2 7 10
-4 10 6 16 33 21 21 3 44 11 51 17 8 7 12 5 12 -7 0 -9 -4 -16 -9 -16 -5 0
-16 -6 -23 -13 -7 -7 -32 -27 -56 -45 -31 -25 -41 -29 -36 -15 3 11 -3 8 -16
-10 -12 -15 -42 -41 -67 -58 -53 -37 -50 -48 7 -25 22 9 40 11 40 6 0 -6 -5
-10 -11 -10 -5 0 -7 -5 -3 -12 4 -7 3 -8 -4 -4 -15 9 -51 -14 -45 -30 3 -7 -4
-10 -21 -7 -19 4 -28 -1 -40 -23 -8 -16 -15 -23 -16 -15 0 10 -3 11 -13 2 -8
-6 -17 -8 -20 -4 -4 3 -7 -6 -7 -21 0 -21 -4 -27 -15 -22 -11 4 -15 -2 -15
-21 0 -21 -2 -24 -15 -13 -12 10 -15 9 -15 -4 0 -9 -11 -21 -25 -26 -14 -5
-25 -14 -25 -20 0 -10 -8 -22 -38 -56 -8 -8 -11 -21 -8 -29 3 -10 0 -12 -11
-8 -12 5 -15 2 -10 -10 3 -8 -1 -21 -9 -28 -8 -7 -26 -35 -40 -63 -13 -28 -32
-62 -41 -76 -11 -16 -2 -11 28 16 24 22 60 52 79 64 19 13 37 27 40 30 13 14
50 29 50 20 0 -5 7 -10 15 -10 13 0 14 -4 5 -21 -11 -20 -12 -20 -26 -2 -14
17 -14 17 -8 -1 4 -11 1 -22 -7 -27 -11 -7 -11 -9 4 -9 9 0 17 -5 17 -11 0 -5
-4 -8 -9 -5 -13 8 -65 -40 -57 -53 4 -6 1 -14 -7 -17 -9 -3 -18 -17 -21 -30
-4 -14 -11 -22 -17 -18 -19 11 -51 -28 -45 -56 3 -14 3 -19 0 -12 -9 19 -29
-13 -43 -66 -7 -25 -18 -42 -26 -42 -8 0 -15 -4 -15 -10 0 -7 623 -10 1850
-10 l1850 0 0 1890 0 1890 -1745 0 -1745 0 0 -42z m1355 -248 c3 -5 -1 -10
-10 -10 -9 0 -13 5 -10 10 3 6 8 10 10 10 2 0 7 -4 10 -10z m-108 -56 c-3 -3
-12 -4 -19 -1 -8 3 -5 6 6 6 11 1 17 -2 13 -5z m-32 -134 c-3 -5 -15 -15 -26
-20 -15 -8 -19 -8 -17 2 2 7 10 16 18 20 22 10 32 9 25 -2z m-89 -85 c-11 -8
-24 -15 -30 -15 -5 0 -1 7 10 15 10 8 24 14 29 14 6 0 1 -6 -9 -14z m-77 -60
c-15 -8 -46 -17 -70 -20 -42 -5 -41 -4 16 14 72 23 89 25 54 6z m181 -18 c-14
-7 -32 -18 -40 -25 -8 -6 -18 -12 -22 -13 -4 0 -23 -16 -42 -34 -18 -19 -39
-35 -45 -35 -19 0 71 78 114 100 22 11 45 20 50 19 6 0 -1 -6 -15 -12z m149
-10 c-2 -2 -22 -14 -44 -27 -32 -19 -37 -20 -25 -6 8 10 23 22 35 26 20 9 42
13 34 7z m-378 -38 c-37 -33 -77 -52 -92 -43 -5 3 -9 -1 -9 -9 0 -10 17 -13
78 -11 49 2 72 0 62 -6 -23 -14 13 -24 39 -10 35 18 23 3 -15 -19 -42 -25 -51
-26 -34 -6 11 13 3 15 -64 15 -61 0 -76 3 -76 15 0 8 -4 15 -9 15 -6 0 -9 9
-8 20 1 12 7 18 14 16 7 -3 13 -1 13 5 0 6 5 7 10 4 6 -3 13 0 16 9 3 9 18 14
35 14 17 -1 35 4 41 10 7 7 17 12 22 12 6 0 -5 -14 -23 -31z m194 -47 c-45
-38 -125 -87 -125 -77 0 6 119 85 129 85 3 0 1 -4 -4 -8z m95 -6 c0 -2 -7 -9
-15 -16 -13 -11 -14 -10 -9 4 5 14 24 23 24 12z m30 -46 c0 -5 -6 -10 -13 -10
-7 0 -25 -12 -41 -26 -22 -21 -30 -24 -36 -13 -8 12 -26 3 -60 -31 -16 -16
-72 -51 -76 -48 -13 13 121 112 138 102 7 -4 10 -3 5 1 -4 5 7 14 25 21 43 15
58 16 58 4z m28 -58 c-10 -2 -18 -8 -18 -14 0 -6 -8 -17 -17 -25 -10 -8 -12
-12 -5 -8 6 3 12 1 12 -4 0 -14 37 -14 45 -1 7 11 94 14 119 4 9 -3 16 -12 16
-19 0 -15 27 -28 41 -19 5 3 9 -2 9 -10 0 -9 4 -16 9 -16 5 0 12 -11 15 -25 4
-14 11 -25 16 -25 6 0 10 -24 10 -54 0 -39 4 -55 15 -60 10 -4 15 -20 15 -52
0 -33 5 -51 18 -60 16 -13 16 -14 -5 -20 -13 -3 -23 -10 -23 -15 0 -5 -8 -9
-17 -9 -29 0 -104 -29 -131 -50 -14 -11 -32 -20 -41 -20 -10 0 -26 -7 -37 -15
-10 -8 -26 -15 -35 -15 -9 0 -22 -6 -28 -13 -6 -8 -23 -12 -41 -9 -23 3 -37
-1 -51 -17 l-20 -21 26 -10 c15 -6 34 -11 43 -12 9 -1 -10 -4 -43 -7 l-60 -6
-6 -43 c-5 -38 -3 -46 18 -59 13 -8 23 -22 23 -29 0 -8 3 -13 8 -13 24 4 42
-3 42 -17 0 -12 3 -14 13 -6 7 6 24 8 37 5 16 -4 21 -3 16 5 -4 7 -14 12 -22
12 -8 0 -14 5 -14 10 0 6 5 10 11 10 5 0 7 5 4 10 -3 6 4 10 16 10 12 0 19 -3
16 -7 -4 -3 1 -12 11 -20 12 -10 14 -16 4 -19 -6 -3 -10 -9 -7 -14 3 -4 -7
-11 -21 -14 -23 -6 -25 -9 -13 -24 16 -20 39 -59 39 -67 0 -3 -7 -5 -17 -5
-14 0 -14 -2 3 -21 14 -16 15 -23 7 -26 -7 -3 -13 -16 -13 -29 0 -13 6 -34 13
-45 10 -17 10 -23 0 -26 -17 -6 -16 -23 1 -23 10 0 15 -21 18 -82 5 -91 29
-158 57 -158 9 0 22 -5 28 -11 7 -7 21 -6 48 5 36 16 39 15 60 -4 13 -12 35
-20 56 -20 78 0 170 -13 166 -24 -2 -6 -15 -12 -30 -13 -14 -1 -37 -9 -50 -18
-14 -8 -53 -18 -88 -21 -109 -8 -142 -21 -213 -85 -37 -32 -66 -62 -64 -66 1
-5 -6 -9 -14 -11 -12 -2 -15 2 -11 17 6 22 -11 29 -22 10 -5 -7 -14 -3 -26 10
-21 23 -65 27 -89 10 -11 -8 -12 -12 -2 -16 19 -8 14 -23 -8 -23 -13 0 -20 7
-20 20 0 11 -7 20 -15 20 -8 0 -15 -5 -15 -12 0 -19 -32 -48 -53 -48 -13 0
-17 5 -13 15 8 21 -20 19 -34 -2 -8 -13 -13 -15 -17 -5 -4 9 -8 10 -18 2 -10
-8 -15 -8 -20 0 -4 6 -5 14 -2 17 5 5 -12 29 -48 67 -11 11 -18 30 -17 42 4
27 -35 41 -41 15 -3 -9 -5 -3 -6 12 0 16 3 26 8 22 5 -3 12 -1 16 5 3 5 -1 10
-10 10 -12 0 -14 8 -9 43 4 23 13 47 20 53 19 15 18 21 -5 27 -15 4 -19 18
-23 94 -3 50 -8 96 -12 102 -5 7 -19 2 -42 -15 -41 -32 -73 -33 -112 -6 -39
28 -59 60 -67 108 -6 32 -5 37 6 27 18 -18 39 -16 39 2 0 9 -10 35 -21 58 -19
36 -21 52 -16 120 4 43 11 94 16 115 6 20 13 49 16 64 3 15 13 34 22 43 21 21
8 47 -28 55 -16 4 -20 8 -11 14 7 4 22 4 34 0 23 -7 82 -65 92 -89 7 -20 26
-19 26 0 0 33 16 12 33 -42 14 -47 17 -88 15 -213 -1 -107 2 -167 11 -194 11
-33 15 -36 23 -22 5 10 7 24 3 33 -3 9 0 20 7 24 9 6 9 19 0 59 -9 37 -9 57
-1 71 6 11 11 43 12 70 1 27 5 49 10 49 4 0 7 7 7 16 0 8 -4 12 -10 9 -5 -3
-10 1 -10 10 0 11 5 15 15 11 12 -4 14 0 9 21 -5 18 -4 24 5 19 15 -9 14 7 -1
22 -16 16 13 26 55 18 l32 -6 -23 18 c-25 20 -21 52 7 52 11 1 6 9 -17 29 -31
27 -37 49 -19 79 5 7 3 12 -4 12 -8 0 -8 4 1 15 7 8 19 15 26 15 8 0 19 11 24
25 5 14 14 25 20 25 5 0 10 10 10 23 0 13 5 28 12 35 9 9 8 17 -2 37 -7 14
-10 28 -7 31 4 4 -1 13 -11 20 -16 12 -15 13 5 14 12 0 25 5 28 10 4 6 10 8
15 5 13 -8 49 26 43 41 -3 7 7 15 26 19 17 4 29 10 27 14 -6 9 58 70 93 89 13
8 35 16 50 19 14 2 27 6 30 8 2 3 9 1 15 -3 7 -4 5 -8 -6 -10z m-328 -16 c0
-2 -7 -7 -16 -10 -8 -3 -12 -2 -9 4 6 10 25 14 25 6z m-47 -50 c-10 -13 -26
-29 -35 -35 -14 -9 -16 -8 -11 7 9 26 34 52 50 52 11 0 10 -5 -4 -24z m180
-11 c-3 -9 -8 -14 -10 -11 -3 3 -2 9 2 15 9 16 15 13 8 -4z m-93 -4 c0 -13
-70 -53 -84 -48 -6 2 5 11 25 20 20 8 40 20 43 26 9 13 16 14 16 2z m20 -61
c0 -5 -12 -10 -27 -9 l-28 1 25 8 c14 4 26 8 28 9 1 1 2 -3 2 -9z m-92 -14
c35 4 34 3 -8 -9 -45 -13 -70 -12 -70 3 0 11 34 18 38 9 2 -4 20 -6 40 -3z
m402 -552 c0 -14 -3 -14 -15 -4 -8 7 -15 14 -15 16 0 2 7 4 15 4 8 0 15 -7 15
-16z m397 -76 c-3 -8 -6 -5 -6 6 -1 11 2 17 5 13 3 -3 4 -12 1 -19z m-50 -34
c-3 -3 -12 -4 -19 -1 -8 3 -5 6 6 6 11 1 17 -2 13 -5z m148 -54 c9 -17 21 -56
26 -88 6 -31 15 -63 21 -69 21 -26 22 -140 1 -200 -11 -32 -21 -71 -22 -86 0
-16 -4 -33 -7 -38 -9 -15 -23 -1 -18 19 2 10 -7 25 -23 37 -36 25 -100 24
-155 -4 -46 -22 -78 -15 -78 19 0 10 -5 20 -11 22 -6 2 -11 22 -10 43 1 22 2
56 2 75 0 44 1 78 3 110 1 16 -4 24 -13 22 -24 -5 -51 9 -51 28 0 14 10 20 40
25 22 4 40 12 40 18 0 7 14 23 32 37 17 14 37 31 45 38 11 11 13 9 14 -15 0
-25 1 -26 9 -8 7 17 9 17 9 3 1 -24 18 -23 26 2 7 23 25 27 25 5 0 -14 3 -14
30 0 17 9 30 20 30 25 0 21 20 9 35 -20z m-993 -649 c5 -17 15 -34 23 -38 8
-3 15 -13 15 -23 0 -9 9 -29 20 -43 11 -14 20 -28 20 -32 0 -3 14 -18 30 -32
17 -13 27 -29 24 -35 -3 -5 1 -15 10 -21 9 -7 18 -23 21 -36 3 -14 17 -35 31
-46 16 -13 24 -27 20 -33 -4 -7 -2 -12 5 -12 7 0 10 -2 7 -5 -3 -3 -52 12
-109 33 -57 21 -130 45 -161 52 -54 12 -79 30 -42 30 8 0 13 4 10 9 -3 4 6 13
19 19 18 8 23 16 18 29 -6 16 -5 17 12 3 18 -14 18 -12 12 75 -4 50 -10 103
-13 119 -10 41 18 30 28 -13z m678 -181 c0 -5 -5 -10 -11 -10 -5 0 -7 5 -4 10
3 6 8 10 11 10 2 0 4 -4 4 -10z m90 -160 c0 -5 -4 -10 -10 -10 -5 0 -10 5 -10
10 0 6 5 10 10 10 6 0 10 -4 10 -10z m-1470 -534 c0 -2 -8 -10 -17 -17 -16
-13 -17 -12 -4 4 13 16 21 21 21 13z m-75 -81 c-39 -30 -49 -21 -11 11 15 14
31 22 34 19 4 -3 -7 -17 -23 -30z"/>
<path d="M1490 2860 c0 -5 5 -10 11 -10 5 0 7 5 4 10 -3 6 -8 10 -11 10 -2 0
-4 -4 -4 -10z"/>
<path d="M1367 2703 c-4 -3 -7 -11 -7 -17 0 -6 5 -5 12 2 6 6 9 14 7 17 -3 3
-9 2 -12 -2z"/>
<path d="M1365 2630 c3 -5 8 -10 11 -10 2 0 4 5 4 10 0 6 -5 10 -11 10 -5 0
-7 -4 -4 -10z"/>
<path d="M997 2316 c-10 -14 -17 -31 -17 -39 0 -7 -13 -34 -30 -60 -46 -73
-36 -154 22 -178 17 -7 37 -26 46 -46 9 -19 23 -33 34 -33 22 0 23 21 2 62 -9
17 -14 41 -11 54 2 13 0 21 -4 18 -5 -3 -9 -1 -9 3 0 5 9 14 20 21 33 20 20
122 -16 122 -13 0 -15 7 -10 38 9 51 -6 71 -27 38z"/>
<path d="M1447 2323 c-4 -3 -7 -16 -7 -28 0 -11 -5 -26 -11 -32 -12 -12 -3
-37 11 -28 9 6 25 84 18 91 -3 2 -8 1 -11 -3z"/>
<path d="M1151 1824 c0 -11 3 -14 6 -6 3 7 2 16 -1 19 -3 4 -6 -2 -5 -13z"/>
<path d="M1305 1400 c3 -5 8 -10 11 -10 2 0 4 5 4 10 0 6 -5 10 -11 10 -5 0
-7 -4 -4 -10z"/>
<path d="M200 3759 c0 -5 5 -7 10 -4 6 3 10 8 10 11 0 2 -4 4 -10 4 -5 0 -10
-5 -10 -11z"/>
<path d="M100 3686 c0 -16 6 -26 14 -26 9 0 12 7 9 20 -8 31 -23 34 -23 6z"/>
<path d="M110 3626 c0 -2 7 -6 15 -10 8 -3 15 -1 15 4 0 6 -7 10 -15 10 -8 0
-15 -2 -15 -4z"/>
<path d="M267 3551 c-4 -17 -3 -21 5 -13 5 5 8 16 6 23 -3 8 -7 3 -11 -10z"/>
<path d="M68 3453 c6 -2 18 -2 25 0 6 3 1 5 -13 5 -14 0 -19 -2 -12 -5z"/>
<path d="M110 3342 c0 -5 7 -9 15 -9 8 0 15 4 15 9 0 4 -7 8 -15 8 -8 0 -15
-4 -15 -8z"/>
<path d="M135 2820 c4 -6 11 -8 16 -5 14 9 11 15 -7 15 -8 0 -12 -5 -9 -10z"/>
<path d="M331 1874 c0 -11 3 -14 6 -6 3 7 2 16 -1 19 -3 4 -6 -2 -5 -13z"/>
<path d="M185 1790 c3 -5 8 -10 11 -10 2 0 4 5 4 10 0 6 -5 10 -11 10 -5 0 -7
-4 -4 -10z"/>
<path d="M255 850 c3 -5 8 -10 11 -10 2 0 4 5 4 10 0 6 -5 10 -11 10 -5 0 -7
-4 -4 -10z"/>
</g>
</svg>
