<svg display="block" viewBox="0 0 400 400" xmlns="http://www.w3.org/2000/svg"><g fill-rule="evenodd"><path d="M359.35 144.18c-.13.339-.401.513-.604.388-.202-.125-.342-.079-.311.102.137.788-.093 1.352-.937 2.295-.495.554-1.606 2.003-2.47 3.221-.863 1.218-1.718 2.214-1.9 2.214-.181 0-.333.225-.337.5-.011.726-2.042 3.669-4.093 5.929-.385.424-.697.863-.694.975.008.242-1.284 2.308-1.623 2.596-.13.11-.846 1.1-1.593 2.2-.746 1.1-1.679 2.349-2.073 2.775-.395.427-.717 1.012-.717 1.3 0 .289-.18.525-.4.525s-.401.225-.402.5-.499 1.04-1.107 1.7c-1.545 1.678-4.063 5.274-4.503 6.431-.202.533-.563.969-.802.969-.238 0-.337.156-.219.347.118.19-.113.642-.513 1.004s-1.429 1.692-2.285 2.954c-.857 1.262-1.741 2.427-1.964 2.589-.265.192-.267.299-.005.309.22.008.031.326-.421.706-1.058.891-2.979 3.512-2.979 4.064 0 .235-.18.427-.4.427-.761 0-.433 2.372.4 2.893.44.275.8.711.8.97s.135.53.3.604c1.149.51 6.5 9.672 6.5 11.128 0 .223.18.405.4.405s.379.135.353.3-.004.435.05.6c.053.165.126.435.161.6s.26.66.498 1.1c.239.44.383 1.116.321 1.502s.051.6.252.476c.32-.197.55.652.412 1.522-.026.165.094.3.267.3s.339.315.37.7c.03.385.174 1.69.318 2.9.671 5.601.275 17.241-.596 17.531-.226.076-.317.289-.203.474.196.317-.625 3.251-1.398 4.995-.405.914-.937 2.703-.892 3 .017.11-.227.344-.541.52-.315.176-.572.671-.572 1.1s-.18.78-.4.78-.371.135-.335.3c.116.54-.767 2.321-1.419 2.862-.35.291-.545.677-.433.859.112.181-.036.476-.328.654-.293.179-.767.908-1.055 1.62s-.682 1.196-.876 1.076c-.195-.12-.354.043-.354.363s-.54 1.159-1.2 1.866c-1.424 1.524-1.406 1.412-.4 2.492.44.472.8 1.106.8 1.407 0 .302.18.437.4.301s.4-.049.4.193c0 .243.179.658.397.924 1.322 1.608 3.087 3.907 3.603 4.693.33.503 1.005 1.279 1.5 1.724.495.446.9.971.9 1.167s.225.607.5.914c1.187 1.323 1.5 1.776 1.5 2.168 0 .229.18.417.4.417s.4.23.4.512c0 .281.36.771.8 1.088s.8.805.8 1.085c0 .279.36.733.8 1.008s.8.644.8.82c0 .343.111.495 1.986 2.74.668.799 1.214 1.565 1.214 1.703s.54.816 1.2 1.507 1.2 1.434 1.2 1.652c0 .217.675 1.174 1.5 2.126 2.505 2.89 3.748 4.506 3.688 4.795-.031.151.103.385.297.519.194.135.794.875 1.332 1.645.539.77 1.655 2.097 2.481 2.948.826.852 1.502 1.897 1.502 2.324 0 .426.167.672.371.546s.473.088.597.476.945 1.492 1.824 2.452c.88.96 1.488 1.924 1.353 2.142-.152.248.114.293.705.121.808-.235 11.95-11.054 11.95-11.604 0-.105.804-1.03 1.787-2.056.984-1.026 1.71-1.993 1.614-2.147-.095-.155.248-.648.763-1.096s1.268-1.375 1.673-2.06c.404-.685.877-1.246 1.049-1.246.173 0 .314-.241.314-.535s.68-1.509 1.512-2.7c.831-1.191 1.776-2.705 2.099-3.365s.692-1.29.818-1.4c.303-.262 4.179-8.171 4.067-8.297-.047-.053.272-.734.709-1.512.437-.779.795-1.759.795-2.18 0-.42.18-.875.4-1.011s.4-.591.4-1.011c0-.421.36-1.406.8-2.189s.8-1.768.8-2.189c0-.42.141-.851.313-.957s.356-.767.409-1.468c.054-.701.273-1.603.488-2.004.214-.401.39-1.292.39-1.979 0-.688.139-1.165.308-1.06.17.105.345-.636.39-1.646.045-1.011.232-1.941.415-2.067.183-.127.36-1.18.393-2.341.034-1.162.192-2.324.353-2.584.924-1.496.731-24.748-.243-29.301-.235-1.098-.34-2.225-.233-2.504s.026-.952-.181-1.495c-.207-.544-.412-1.667-.457-2.497-.045-.829-.223-1.697-.395-1.927-.173-.231-.36-1.099-.416-1.928-.056-.83-.244-1.597-.418-1.705-.174-.107-.316-.704-.316-1.326s-.256-1.624-.568-2.226c-.313-.603-.462-1.373-.332-1.711.155-.404.075-.517-.232-.327-.304.188-.468-.025-.468-.608 0-1.023-1.514-5.557-2.047-6.13-.194-.209-.353-.706-.353-1.104 0-.717-.475-1.877-2.997-7.316-.714-1.54-1.424-3.205-1.577-3.7-.154-.495-.478-.9-.72-.9-.241 0-.327-.112-.19-.249.137-.138-.214-.858-.781-1.6-.566-.743-.891-1.351-.72-1.351.17 0 .037-.315-.295-.7s-1.108-1.645-1.725-2.8-1.284-2.1-1.482-2.1-.249-.18-.113-.4.076-.4-.132-.4c-.209 0-1.075-1.078-1.924-2.397-.849-1.318-1.685-2.398-1.857-2.4-.172-.001-.442-.336-.6-.744-.399-1.031-2.305-3.401-4.787-5.953-1.155-1.187-2.1-2.286-2.1-2.44 0-.155-.89-.987-1.978-1.848-1.087-.862-1.887-1.713-1.776-1.892s.056-.326-.122-.327c-.178 0-.954-.55-1.724-1.221-2.088-1.821-2.766-2.132-3.048-1.398" fill="#fc2404"/><path d="M157.6 133.2v81.203l-2.8-2.862c-1.54-1.574-2.8-2.999-2.8-3.168 0-.168-1.08-1.403-2.4-2.744-1.32-1.34-2.4-2.602-2.4-2.804s-1.26-1.642-2.8-3.2c-1.54-1.559-2.8-2.992-2.8-3.185 0-.194-1.08-1.473-2.4-2.843s-2.4-2.647-2.4-2.838-1.17-1.517-2.6-2.947-2.6-2.768-2.6-2.973-1.08-1.469-2.4-2.81c-1.32-1.34-2.4-2.533-2.4-2.649 0-.232-.602-.919-3.601-4.11-1.099-1.169-1.999-2.29-1.999-2.491s-.947-1.314-2.105-2.473c-1.157-1.16-2.547-2.739-3.089-3.509-.541-.77-1.844-2.243-2.895-3.274s-1.911-1.982-1.911-2.113c0-.132-.585-.861-1.3-1.619-2.162-2.296-2.871-3.131-3.896-4.594-.54-.77-1.842-2.243-2.893-3.274s-1.911-2.026-1.911-2.212c0-.185-1.125-1.537-2.5-3.004s-3.22-3.481-4.1-4.474l-1.6-1.807-38.476-.015c-22.887-.008-38.569.134-38.703.352-.464.75.612 2.452 3.158 4.999 1.442 1.441 2.621 2.79 2.621 2.997s1.26 1.652 2.8 3.21c1.54 1.559 2.8 2.975 2.8 3.149 0 .173 1.26 1.636 2.8 3.251s2.8 3.089 2.8 3.275 1.127 1.467 2.504 2.846 2.95 3.137 3.495 3.907c.546.77 1.939 2.349 3.096 3.509 1.158 1.159 2.105 2.253 2.105 2.429 0 .177 1.26 1.619 2.8 3.206 1.54 1.586 2.8 3.044 2.8 3.24 0 .195 1.26 1.63 2.8 3.188 1.54 1.559 2.8 2.92 2.8 3.026 0 .527 3.852 4.602 4.349 4.602.177 0 .522.438.766.973.506 1.11 1.586 2.44 3.89 4.79.883.9 2.047 2.258 2.585 3.018.961 1.355 3.033 3.625 7.81 8.559 1.32 1.363 2.659 2.977 2.977 3.586.317.609 1.487 2.053 2.6 3.208 1.112 1.155 2.544 2.789 3.181 3.632s2.122 2.496 3.3 3.674c1.178 1.179 2.142 2.312 2.142 2.518s.225.466.5.577c.4.161.4.208 0 .233-.275.018-.5.222-.5.454s-.539.997-1.198 1.7-1.199 1.415-1.2 1.582-.542.868-1.202 1.559-1.2 1.427-1.2 1.636-.54.884-1.2 1.501-1.2 1.292-1.2 1.501-.54.945-1.2 1.636-1.2 1.392-1.2 1.559c-.001.262-.626 1.095-2.392 3.187-.224.266-.408.579-.408.696 0 .213-.969 1.457-1.9 2.437-.275.29-.5.631-.5.759s-.54.797-1.2 1.488-1.2 1.427-1.2 1.636-.54.884-1.2 1.501-1.2 1.337-1.2 1.6-.54.983-1.2 1.6-1.2 1.337-1.2 1.6-.54.983-1.2 1.6-1.2 1.311-1.2 1.542c0 .232-.405.849-.9 1.371-1.809 1.907-3.475 4.099-3.487 4.587-.007.275-.193.5-.413.5s-.4.23-.4.512c0 .281-.36.771-.8 1.088s-.8.807-.8 1.088c0 .282-.18.512-.4.512s-.4.182-.4.404-.54.968-1.2 1.659-1.2 1.427-1.2 1.636-.54.884-1.2 1.501-1.2 1.337-1.2 1.6-.54.983-1.2 1.6-1.2 1.23-1.2 1.364-.54.808-1.2 1.499-1.2 1.499-1.2 1.796c0 .298-.135.542-.3.544-.165.001-.75.676-1.299 1.5-.957 1.432-1.165 1.71-2.301 3.066-.275.329-.5.803-.5 1.054s-.54.96-1.2 1.577-1.2 1.284-1.2 1.482c0 .199-.634 1.072-1.408 1.94l-2.4 2.685c-.546.609-.992 1.246-.992 1.416s-.72 1.105-1.6 2.077-1.6 1.912-1.6 2.088c0 .175-.54.884-1.2 1.575s-1.2 1.433-1.2 1.649c0 .217-.333.685-.741 1.041-.407.356-1.064 1.277-1.459 2.047s-1.052 1.691-1.459 2.047c-.408.356-.741.779-.741.939 0 .161-.54.797-1.2 1.414s-1.2 1.337-1.2 1.6-.54.983-1.2 1.6-1.2 1.292-1.2 1.501-.54.945-1.2 1.636-1.2 1.411-1.2 1.6-.524.892-1.164 1.562-1.381 1.624-1.647 2.122c-.266.497-.825 1.281-1.243 1.741-1.427 1.575-3.58 4.354-4.026 5.196-.245.463-.777 1.133-1.183 1.489-.405.356-.737.869-.737 1.139 0 .271-.54.997-1.2 1.614S6 336.166 6 336.469s-.36.811-.8 1.128c-3.208 2.312-3.04 2.323 42.522 2.63l35.923.242.977-1.136c.537-.625.977-1.295.978-1.489 0-.194.324-.644.719-1s1.156-1.277 1.689-2.047c.534-.77 1.305-1.76 1.715-2.2s1.026-1.34 1.37-2 .959-1.491 1.366-1.847c.408-.356.741-.869.741-1.139 0-.271.54-.997 1.2-1.614s1.2-1.247 1.2-1.4.54-.783 1.2-1.4 1.2-1.281 1.2-1.476c0-.196.72-1.152 1.6-2.124s1.6-1.912 1.6-2.088c0-.175.54-.884 1.2-1.575s1.2-1.411 1.2-1.6.54-.909 1.2-1.6 1.2-1.411 1.2-1.6.54-.909 1.2-1.6 1.2-1.401 1.2-1.578c0-.178.45-.773 1-1.323s1-1.188 1-1.418.18-.418.4-.418.4-.198.4-.44c0-.241.54-.943 1.2-1.56s1.2-1.337 1.2-1.6.54-.983 1.2-1.6 1.2-1.337 1.2-1.6.54-.983 1.2-1.6 1.2-1.292 1.2-1.501.495-.907 1.1-1.55 1.91-2.245 2.9-3.559c1.745-2.317 2.038-2.691 3.1-3.959.275-.329.5-.803.5-1.054s.54-.96 1.2-1.577 1.2-1.319 1.2-1.56c0-.242.18-.44.4-.44s.4-.182.4-.404.54-.968 1.2-1.659 1.2-1.427 1.2-1.636.54-.884 1.2-1.501 1.2-1.239 1.2-1.382c0-.144.539-.837 1.198-1.54s1.199-1.437 1.2-1.631.326-.644.721-1 1.155-1.277 1.689-2.047c.533-.77 1.379-1.848 1.881-2.396.501-.548.911-1.24.911-1.539s.54-1.048 1.2-1.665 1.2-1.337 1.2-1.6.54-.983 1.2-1.6 1.2-1.247 1.2-1.4.54-.783 1.2-1.4 1.2-1.281 1.2-1.476c0-.196.72-1.152 1.6-2.124s1.6-1.912 1.6-2.088c0-.175.54-.884 1.2-1.575s1.2-1.411 1.2-1.6.54-.909 1.2-1.6 1.2-1.499 1.2-1.796c0-.298.18-.541.4-.541.264 0 .4 16.334.4 48.202v48.203l32.3-.103 32.3-.102.111-5.5c.065-3.217.273-5.5.5-5.5.214 0 .389.18.389.4s.349.4.776.4.888.18 1.024.4.687.4 1.224.4.976.18.976.4.36.4.8.4.8.18.8.4.45.4 1 .4 1 .18 1 .4.349.4.776.4.888.18 1.024.4.676.4 1.2.4 1.064.18 1.2.4.766.4 1.4.4 1.264.18 1.4.4.777.4 1.424.4 1.176.18 1.176.4.72.4 1.6.4 1.6.18 1.6.4.619.4 1.376.4 1.488.18 1.624.4 1.036.4 2 .4 1.864.18 2 .4 1.281.4 2.544.4 2.467.167 2.676.372c1.257 1.23 35.1 1.229 36.36-.001.209-.204 1.388-.371 2.62-.371s2.411-.163 2.62-.361c.209-.199 1.19-.463 2.18-.588 3.944-.495 5.215-.751 5.426-1.093.122-.197.92-.358 1.774-.358s1.664-.18 1.8-.4.777-.4 1.424-.4 1.176-.18 1.176-.4.72-.4 1.6-.4 1.6-.18 1.6-.4.54-.4 1.2-.4 1.2-.18 1.2-.4.54-.4 1.2-.4 1.2-.18 1.2-.4.54-.4 1.2-.4 1.2-.18 1.2-.4.362-.4.805-.4c.778 0 1.164-.142 3.09-1.138.492-.254 1.167-.462 1.5-.462s.605-.18.605-.4.439-.4.976-.4 1.088-.18 1.224-.4.597-.4 1.024-.4.776-.18.776-.4.36-.4.8-.4.8-.18.8-.4.36-.4.8-.4.8-.18.8-.4.36-.4.8-.4.8-.18.8-.4.288-.4.641-.4c.773 0 4.558-2.076 4.559-2.5 0-.165.36-.3.8-.3s.8-.15.8-.332c0-.183.495-.587 1.1-.898.605-.31 1.391-.881 1.747-1.267.356-.387.855-.703 1.11-.703s1.23-.766 2.167-1.703c.936-.936 2.147-2.067 2.689-2.512 2.892-2.372 3.204-3.629 1.395-5.604-.774-.846-1.408-1.7-1.408-1.899 0-.198-.54-.865-1.2-1.482s-1.2-1.337-1.2-1.6-.54-.983-1.2-1.6-1.2-1.337-1.2-1.6-.54-.983-1.2-1.6-1.2-1.292-1.2-1.501-.54-.945-1.2-1.636-1.2-1.355-1.2-1.476c0-.122-.183-.438-.407-.704-1.525-1.808-1.993-2.441-1.993-2.694 0-.159-.63-.976-1.4-1.817s-1.4-1.691-1.4-1.89c0-.198-.54-.865-1.2-1.482s-1.2-1.337-1.2-1.6-.54-.983-1.2-1.6-1.2-1.292-1.2-1.501-.54-.945-1.2-1.636-1.2-1.365-1.2-1.499-.54-.747-1.2-1.364-1.2-1.337-1.2-1.6-.54-.983-1.2-1.6-1.2-1.366-1.2-1.665-.41-.991-.911-1.539c-.502-.548-1.348-1.626-1.881-2.396-.534-.77-1.261-1.67-1.617-2-.355-.33-.763-.915-.906-1.3-.397-1.069-1.837-.836-3.085.5-.617.66-1.274 1.201-1.46 1.202-.187.001-.88.504-1.54 1.118-.66.615-2.1 1.728-3.2 2.475s-2.06 1.504-2.133 1.682c-.074.178-.479.323-.9.323-.422 0-.767.18-.767.4s-.36.4-.8.4-.801.135-.803.3c-.004.359-1.941 1.3-2.677 1.3-.286 0-.52.18-.52.4s-.36.4-.8.4-.8.18-.8.4-.439.4-.976.4-1.078.163-1.201.363c-.123.199-1.123.486-2.223.637s-2.1.438-2.223.637c-.123.2-.934.363-1.801.363s-1.576.18-1.576.4c0 .221-1.04.4-2.32.4-1.276 0-2.508.188-2.738.418-.524.524-13.715.252-17.142-.353-4.338-.766-5.195-.962-5.6-1.278-.22-.172-1.255-.439-2.3-.595s-1.9-.442-1.9-.637-.45-.355-1-.355-1.001-.135-1.001-.3c-.001-.165-.991-.75-2.199-1.3s-2.198-1.135-2.199-1.3c0-.165-.361-.3-.801-.3s-.8-.15-.8-.332c0-.183-.495-.588-1.1-.9-.605-.313-1.449-.883-1.875-1.268-.427-.385-.922-.7-1.1-.7s-1.066-.72-1.973-1.6-1.897-1.6-2.2-1.6c-.304 0-.552-.153-.552-.339 0-.348-2.379-3.177-4.7-5.59-.715-.743-1.3-1.563-1.3-1.823 0-.259-.36-.731-.8-1.048s-.8-.857-.8-1.2-.36-.883-.8-1.2-.8-.897-.8-1.288c0-.392-.18-.712-.4-.712s-.4-.36-.4-.8-.18-.8-.4-.8-.4-.36-.4-.8-.18-.8-.4-.8-.4-.36-.4-.8-.18-.8-.4-.8-.4-.272-.4-.605-.18-.963-.4-1.4l-.8-1.59c-.22-.437-.4-1.157-.4-1.6s-.18-.805-.4-.805-.4-.54-.4-1.2-.18-1.2-.4-1.2-.4-.705-.4-1.567c0-.861-.171-1.626-.38-1.7-.209-.073-.505-2.254-.659-4.846s-.433-4.808-.62-4.924c-.45-.278-.443-12.853.007-13.131.191-.118.476-2.019.632-4.223.156-2.205.45-4.009.652-4.009s.368-.54.368-1.2.18-1.2.4-1.2.4-.54.4-1.2.18-1.2.4-1.2.4-.36.4-.8.18-.8.4-.8.4-.36.4-.8.18-.8.4-.8.4-.36.4-.8.18-.8.4-.8.4-.36.4-.8.18-.8.4-.8.4-.32.4-.712c0-.391.36-.971.8-1.288s.8-.792.8-1.055.142-.538.315-.612c.173-.073.938-.936 1.7-1.917 1.934-2.493 9.664-10.015 10.292-10.017.161 0 .923-.54 1.693-1.199s1.625-1.199 1.9-1.199c.275-.001.5-.181.5-.401s.36-.4.8-.4.8-.18.8-.4.19-.4.422-.4c.398 0 2.747-.985 5.339-2.238.639-.309 1.494-.562 1.9-.562.407 0 .739-.18.739-.4s.54-.4 1.2-.4 1.2-.162 1.2-.36c0-.353 1.618-.646 6-1.088 1.21-.122 2.371-.387 2.58-.587.499-.479 13.42-.478 13.42.001 0 .201 1.125.463 2.5.582 4.304.374 6.3.72 6.3 1.092 0 .198.619.36 1.376.36s1.488.18 1.624.4.599.4 1.029.4 1.094.159 1.476.353c.382.195 1.235.576 1.895.847s1.513.652 1.895.847c.382.194.904.353 1.16.353.634 0 4.912 2.093 5.078 2.485.074.173.479.315.9.315.422 0 .767.18.767.4s.27.4.6.4.6.18.6.4.27.4.6.4.6.18.6.4.27.4.6.4.6.15.6.332c0 .183.495.588 1.1.9.605.313 1.577 1.063 2.16 1.668 1.592 1.651 4.737.648 4.74-1.512 0-.226.36-.671.8-.988s.8-.773.8-1.013.341-.802.757-1.249c.417-.447 1.049-1.336 1.406-1.976 1.116-2.004 1.615-2.73 2.337-3.403.385-.359.7-.857.7-1.106s.18-.453.4-.453.4-.23.4-.512c0-.281.36-.771.8-1.088s.8-.809.8-1.092.54-1.08 1.2-1.771 1.2-1.459 1.2-1.708.36-.712.8-1.029.8-.815.8-1.106c0-.292.45-.98 1-1.53s1-1.164 1-1.364.45-.814 1-1.364 1-1.096 1-1.213c0-.118.81-1.279 1.8-2.581s1.8-2.614 1.8-2.916.36-.809.8-1.126.8-.78.8-1.029.54-1.017 1.2-1.708 1.2-1.488 1.2-1.771.36-.775.8-1.092.8-.825.8-1.128.54-1.055 1.2-1.672 1.2-1.319 1.2-1.56c0-.242.15-.44.332-.44.183 0 .587-.495.898-1.1.31-.605.881-1.391 1.267-1.747.903-.831.905-2.302.003-2.641-.385-.145-1.177-.769-1.76-1.387-.584-.619-1.214-1.125-1.4-1.126-.187 0-.97-.54-1.74-1.199s-1.625-1.199-1.9-1.199c-.275-.001-.5-.159-.5-.352 0-.194-.54-.576-1.2-.849s-1.2-.652-1.2-.841-.45-.457-1-.595-1-.411-1-.607c0-.197-.36-.357-.8-.357s-.8-.18-.8-.4-.27-.4-.6-.4-.6-.18-.6-.4-.27-.4-.6-.4-.6-.18-.6-.4-.36-.4-.8-.4-.8-.18-.8-.4-.36-.4-.8-.4-.8-.18-.8-.4-.36-.4-.8-.4-.8-.18-.8-.4-.36-.4-.8-.4-.8-.18-.8-.4-.36-.4-.8-.4-.8-.18-.8-.4-.272-.4-.605-.4-.963-.18-1.4-.4l-1.59-.8c-.437-.22-1.067-.4-1.4-.4s-.605-.18-.605-.4-.45-.4-1-.4-1-.18-1-.4-.54-.4-1.2-.4-1.2-.18-1.2-.4-.439-.4-.976-.4-1.088-.18-1.224-.4-.777-.4-1.424-.4-1.176-.18-1.176-.4-.54-.4-1.2-.4-1.2-.16-1.2-.356-.585-.453-1.3-.571a45.625 45.625 0 0 1-3.1-.677c-.99-.253-2.476-.556-3.303-.671-.826-.115-1.602-.37-1.723-.567-.122-.197-.985-.358-1.918-.358s-1.874-.178-2.091-.395-3.043-.515-6.28-.662-5.885-.419-5.885-.605-4.32-.338-9.6-.338c-6.133 0-9.6.144-9.6.4 0 .234-1.452.412-3.5.428-3.115.026-5.31.218-11.7 1.023-.99.125-1.971.389-2.18.588-.209.198-1.053.361-1.876.361s-1.608.18-1.744.4-.856.4-1.6.4-1.464.18-1.6.4-.766.4-1.4.4-1.264.18-1.4.4-.766.4-1.4.4-1.264.18-1.4.4-.599.4-1.029.4-1.184.208-1.676.462c-1.926.996-2.312 1.138-3.09 1.138-.443 0-.805.18-.805.4s-.45.4-1 .4-1 .18-1 .4-.36.4-.8.4-.8.136-.8.303c0 .294-2.779 1.297-3.594 1.297-.272 0-.406-11.249-.406-34v-34h-64.8V133.2" fill="#040404"/></g></svg>