<svg id="Capa_1" xmlns="http://www.w3.org/2000/svg" width="411.39" height="435.5" viewBox="12.057 0 411.391 435.504"><path d="M403.497 101.917c-4.105-5.073-8.877-9.705-14.166-13.839.707 13.117-.508 27.092-3.668 41.884-8.627 40.413-29.256 74.754-59.656 99.304-30.375 24.533-68.305 37.502-109.687 37.502h-60.344l-19.533 91.512c-3.836 17.959-19.943 30.99-38.303 30.99H70.938l-4.898 22.484a19.583 19.583 0 0 0 19.137 23.75h66.498c9.24 0 17.225-6.459 19.152-15.494L193.667 313h76.188c36.854 0 70.526-11.465 97.384-33.152 26.869-21.697 45.129-52.186 52.807-88.162 7.777-36.377 2.206-66.58-16.549-89.769z"/><path d="M117.292 354.192l22.84-107.009h76.188c36.853 0 70.527-11.466 97.384-33.154 26.866-21.697 45.129-52.186 52.809-88.161 7.773-36.378 2.207-66.58-16.553-89.769C331.952 13.832 301.17 0 269.633 0H103.639a19.585 19.585 0 0 0-19.135 15.414L12.505 345.938a19.583 19.583 0 0 0 19.135 23.748h66.5c9.24.002 17.22-6.457 19.152-15.494zm60.943-278.901h52.229c12.287 0 23.275 5.149 30.146 14.129 7.298 9.539 9.431 22.729 5.853 36.188-.047.171-.088.342-.131.516-6.57 27.73-33.892 50.291-60.897 50.291h-50.05l22.85-101.124z"/></svg>