<?xml version="1.0" standalone="no"?>
<!DOCTYPE svg PUBLIC "-//W3C//DTD SVG 20010904//EN"
 "http://www.w3.org/TR/2001/REC-SVG-20010904/DTD/svg10.dtd">
<svg version="1.0" xmlns="http://www.w3.org/2000/svg"
 width="512.000000pt" height="512.000000pt" viewBox="0 0 512.000000 512.000000"
 preserveAspectRatio="xMidYMid meet">
<metadata>
Created by potrace 1.11, written by Peter Selinger 2001-2013
</metadata>
<g transform="translate(0.000000,512.000000) scale(0.100000,-0.100000)"
fill="#000000" stroke="none">
<path d="M2071 3808 c0 -458 0 -916 -1 -1018 l0 -185 -28 30 c-15 17 -86 98
-157 180 -71 83 -134 155 -140 161 -10 12 -17 19 -246 284 -78 91 -165 191
-192 223 l-50 57 -475 0 -474 0 27 -32 c15 -18 56 -64 90 -103 76 -85 140
-159 220 -250 67 -77 137 -157 145 -165 3 -3 34 -39 70 -80 62 -72 114 -130
135 -154 6 -6 39 -45 75 -86 36 -41 80 -92 99 -112 19 -21 40 -46 47 -56 11
-16 -24 -65 -309 -443 -177 -233 -375 -494 -439 -579 -64 -85 -120 -160 -125
-165 -21 -26 -160 -211 -165 -221 -5 -7 47 -11 165 -12 201 -1 657 -3 739 -2
l57 0 102 132 c55 73 110 144 120 158 11 14 121 158 245 320 124 162 234 306
245 320 11 14 61 80 112 147 51 66 93 120 95 118 9 -9 12 -138 13 -637 l1
-558 26 -1 c15 0 191 0 392 -1 l365 0 3 31 c2 17 6 31 10 31 4 0 41 -13 82
-29 184 -72 355 -100 586 -96 77 1 149 5 160 8 10 3 40 8 67 12 89 11 277 64
387 108 118 48 228 113 298 174 l43 38 -83 110 c-154 204 -341 450 -349 459
-5 6 -24 -2 -46 -20 -136 -108 -266 -154 -448 -159 -208 -6 -350 48 -485 185
-92 94 -90 90 -133 181 -80 166 -103 369 -62 564 19 90 103 221 190 296 22 19
42 36 45 39 8 10 103 65 134 78 73 32 187 51 289 47 121 -4 148 -9 247 -41 81
-27 164 -70 220 -115 l36 -27 49 71 c27 40 53 77 58 82 6 8 138 193 207 291
80 113 100 144 100 148 0 10 -198 136 -260 164 -92 43 -141 64 -154 66 -6 1
-16 5 -22 9 -11 7 -183 51 -239 62 -137 25 -379 25 -545 -1 -81 -13 -301 -76
-325 -94 -5 -4 -20 -10 -31 -14 l-22 -7 -1 448 c0 246 -1 451 -1 456 0 4 -178
7 -395 7 l-394 0 0 -832z"/>
<path d="M4350 3148 c-113 -161 -206 -297 -208 -303 -1 -6 11 -29 28 -50 47
-59 99 -175 113 -252 30 -157 -8 -313 -108 -455 l-34 -46 217 -290 c119 -160
220 -291 224 -291 4 -1 38 29 76 67 200 197 335 475 359 742 32 347 -51 670
-244 947 -49 70 -193 223 -209 223 -5 0 -101 -132 -214 -292z"/>
</g>
</svg>
