<?xml version="1.0" standalone="no"?>
<!DOCTYPE svg PUBLIC "-//W3C//DTD SVG 20010904//EN"
 "http://www.w3.org/TR/2001/REC-SVG-20010904/DTD/svg10.dtd">
<svg version="1.0" xmlns="http://www.w3.org/2000/svg"
 width="512.000000pt" height="512.000000pt" viewBox="0 0 512.000000 512.000000"
 preserveAspectRatio="xMidYMid meet">
<metadata>
Created by potrace 1.11, written by Peter Selinger 2001-2013
</metadata>
<g transform="translate(0.000000,512.000000) scale(0.100000,-0.100000)"
fill="#000000" stroke="none">
<path d="M2032 4435 c-3 -5 -7 -473 -8 -1040 0 -566 -2 -1034 -3 -1038 0 -5
-34 29 -73 76 -100 115 -390 449 -403 463 -5 6 -88 102 -184 213 l-174 201
-490 0 -489 0 72 -82 c40 -46 89 -101 109 -123 20 -22 65 -74 101 -115 36 -41
67 -77 70 -80 3 -3 68 -77 145 -165 77 -88 152 -173 166 -190 139 -156 235
-266 259 -296 l29 -35 -88 -115 c-91 -120 -394 -519 -774 -1021 -125 -166
-226 -303 -224 -304 1 -2 225 -4 496 -6 l493 -4 82 106 c45 58 108 141 141
185 33 44 63 82 66 85 3 3 58 75 123 160 64 85 128 169 141 185 36 46 195 256
298 392 51 67 97 124 103 126 7 4 10 -180 10 -610 -1 -399 3 -617 9 -622 6 -4
188 -7 405 -7 l395 1 3 72 3 73 37 -16 c142 -61 310 -106 450 -120 154 -15
374 -6 502 21 14 2 35 7 47 9 235 47 496 166 618 280 l37 35 -24 33 c-13 18
-25 35 -29 38 -3 3 -18 23 -35 45 -16 22 -34 46 -41 55 -48 61 -255 334 -282
373 -19 26 -37 47 -41 47 -4 0 -33 -20 -65 -45 -151 -118 -373 -171 -585 -141
-118 17 -260 90 -355 183 -243 240 -293 715 -100 967 181 237 461 331 765 255
100 -25 226 -83 298 -137 38 -29 37 -30 98 59 22 31 63 89 92 130 151 211 272
383 272 386 0 22 -205 148 -324 200 -96 42 -229 87 -291 98 -26 4 -46 8 -105
20 -129 26 -398 23 -542 -6 -29 -6 -66 -13 -83 -16 -46 -8 -184 -53 -244 -79
-29 -13 -57 -24 -62 -24 -5 0 -9 194 -9 438 l0 437 -401 0 c-252 0 -403 -4
-407 -10z"/>
<path d="M4410 3004 c-236 -333 -239 -337 -239 -345 -1 -3 13 -24 30 -45 44
-55 104 -188 119 -261 12 -59 10 -178 -4 -248 -9 -41 -90 -203 -121 -241 -24
-29 -24 -31 -7 -50 9 -11 111 -144 225 -297 115 -152 212 -277 217 -277 9 0
142 130 170 166 159 205 253 429 276 659 42 426 -104 857 -385 1135 -31 31
-63 61 -71 67 -14 10 -45 -29 -210 -263z"/>
</g>
</svg>
