<?xml version="1.0" standalone="no"?>
<!DOCTYPE svg PUBLIC "-//W3C//DTD SVG 20010904//EN"
 "http://www.w3.org/TR/2001/REC-SVG-20010904/DTD/svg10.dtd">
<svg version="1.0" xmlns="http://www.w3.org/2000/svg"
 width="512.000000pt" height="512.000000pt" viewBox="0 0 512.000000 512.000000"
 preserveAspectRatio="xMidYMid meet">
<metadata>
Created by potrace 1.11, written by Peter Selinger 2001-2013
</metadata>
<g transform="translate(0.000000,512.000000) scale(0.100000,-0.100000)"
fill="#000000" stroke="none">
<path d="M736 5069 c-77 -11 -191 -43 -267 -74 -88 -35 -220 -127 -279 -193
-91 -101 -156 -263 -180 -443 -13 -105 -13 -3289 1 -3439 20 -224 73 -415 150
-547 19 -32 70 -94 114 -139 65 -64 99 -90 172 -127 179 -89 -2 -82 2143 -82
l1895 0 90 28 c213 67 351 182 446 372 49 100 75 190 89 313 8 68 10 613 7
1827 -3 1578 -5 1737 -20 1805 -26 113 -55 196 -103 291 -104 202 -258 326
-489 391 l-80 23 -1815 1 c-998 1 -1842 -2 -1874 -7z m2084 -1239 l0 -400 38
16 c20 9 78 30 127 46 361 119 774 89 1110 -79 102 -52 235 -139 235 -154 0
-8 -356 -517 -379 -542 -4 -4 -37 12 -74 37 -237 159 -563 168 -779 20 -189
-129 -280 -323 -262 -559 20 -272 150 -485 355 -583 103 -49 162 -62 288 -62
161 0 323 55 429 146 l41 35 157 -208 c87 -115 180 -237 208 -272 l50 -64 -48
-44 c-99 -90 -285 -177 -481 -228 -348 -88 -672 -66 -997 70 -16 6 -18 0 -18
-59 l0 -66 -370 0 -370 0 0 564 c0 311 -3 567 -7 569 -5 3 -204 -251 -443
-564 l-434 -569 -236 1 c-129 1 -333 4 -452 8 l-217 6 494 653 c272 360 495
656 495 659 0 3 -188 220 -417 482 -230 262 -424 484 -432 494 -13 16 10 17
431 17 l444 0 377 -435 c208 -239 382 -435 387 -435 7 0 10 339 10 950 l0 950
370 0 370 0 0 -400z m1686 -732 c211 -216 328 -480 354 -793 29 -358 -80 -669
-322 -920 -78 -82 -82 -85 -99 -68 -18 19 -380 499 -393 521 -5 8 8 35 30 70
84 125 118 266 96 395 -14 80 -65 198 -113 258 l-31 39 198 280 c108 154 202
280 208 280 7 0 39 -28 72 -62z"/>
</g>
</svg>
