<?xml version="1.0" encoding="UTF-8"?>
<svg display="block" version="1.1" viewBox="0 0 400 400" xmlns="http://www.w3.org/2000/svg">
<g fill-rule="evenodd">
<path d="m359.35 144.18c-0.13 0.339-0.401 0.513-0.604 0.388-0.202-0.125-0.342-0.079-0.311 0.102 0.137 0.788-0.093 1.352-0.937 2.295-0.495 0.554-1.606 2.003-2.47 3.221-0.863 1.218-1.718 2.214-1.9 2.214-0.181 0-0.333 0.225-0.337 0.5-0.011 0.726-2.042 3.669-4.093 5.929-0.385 0.424-0.697 0.863-0.694 0.975 8e-3 0.242-1.284 2.308-1.623 2.596-0.13 0.11-0.846 1.1-1.593 2.2-0.746 1.1-1.679 2.349-2.073 2.775-0.395 0.427-0.717 1.012-0.717 1.3 0 0.289-0.18 0.525-0.4 0.525s-0.401 0.225-0.402 0.5-0.499 1.04-1.107 1.7c-1.545 1.678-4.063 5.274-4.503 6.431-0.202 0.533-0.563 0.969-0.802 0.969-0.238 0-0.337 0.156-0.219 0.347 0.118 0.19-0.113 0.642-0.513 1.004s-1.429 1.692-2.285 2.954c-0.857 1.262-1.741 2.427-1.964 2.589-0.265 0.192-0.267 0.299-5e-3 0.309 0.22 8e-3 0.031 0.326-0.421 0.706-1.058 0.891-2.979 3.512-2.979 4.064 0 0.235-0.18 0.427-0.4 0.427-0.761 0-0.433 2.372 0.4 2.893 0.44 0.275 0.8 0.711 0.8 0.97s0.135 0.53 0.3 0.604c1.149 0.51 6.5 9.672 6.5 11.128 0 0.223 0.18 0.405 0.4 0.405s0.379 0.135 0.353 0.3-4e-3 0.435 0.05 0.6c0.053 0.165 0.126 0.435 0.161 0.6s0.26 0.66 0.498 1.1c0.239 0.44 0.383 1.116 0.321 1.502s0.051 0.6 0.252 0.476c0.32-0.197 0.55 0.652 0.412 1.522-0.026 0.165 0.094 0.3 0.267 0.3s0.339 0.315 0.37 0.7c0.03 0.385 0.174 1.69 0.318 2.9 0.671 5.601 0.275 17.241-0.596 17.531-0.226 0.076-0.317 0.289-0.203 0.474 0.196 0.317-0.625 3.251-1.398 4.995-0.405 0.914-0.937 2.703-0.892 3 0.017 0.11-0.227 0.344-0.541 0.52-0.315 0.176-0.572 0.671-0.572 1.1s-0.18 0.78-0.4 0.78-0.371 0.135-0.335 0.3c0.116 0.54-0.767 2.321-1.419 2.862-0.35 0.291-0.545 0.677-0.433 0.859 0.112 0.181-0.036 0.476-0.328 0.654-0.293 0.179-0.767 0.908-1.055 1.62s-0.682 1.196-0.876 1.076c-0.195-0.12-0.354 0.043-0.354 0.363s-0.54 1.159-1.2 1.866c-1.424 1.524-1.406 1.412-0.4 2.492 0.44 0.472 0.8 1.106 0.8 1.407 0 0.302 0.18 0.437 0.4 0.301s0.4-0.049 0.4 0.193c0 0.243 0.179 0.658 0.397 0.924 1.322 1.608 3.087 3.907 3.603 4.693 0.33 0.503 1.005 1.279 1.5 1.724 0.495 0.446 0.9 0.971 0.9 1.167s0.225 0.607 0.5 0.914c1.187 1.323 1.5 1.776 1.5 2.168 0 0.229 0.18 0.417 0.4 0.417s0.4 0.23 0.4 0.512c0 0.281 0.36 0.771 0.8 1.088s0.8 0.805 0.8 1.085c0 0.279 0.36 0.733 0.8 1.008s0.8 0.644 0.8 0.82c0 0.343 0.111 0.495 1.986 2.74 0.668 0.799 1.214 1.565 1.214 1.703s0.54 0.816 1.2 1.507 1.2 1.434 1.2 1.652c0 0.217 0.675 1.174 1.5 2.126 2.505 2.89 3.748 4.506 3.688 4.795-0.031 0.151 0.103 0.385 0.297 0.519 0.194 0.135 0.794 0.875 1.332 1.645 0.539 0.77 1.655 2.097 2.481 2.948 0.826 0.852 1.502 1.897 1.502 2.324 0 0.426 0.167 0.672 0.371 0.546s0.473 0.088 0.597 0.476 0.945 1.492 1.824 2.452c0.88 0.96 1.488 1.924 1.353 2.142-0.152 0.248 0.114 0.293 0.705 0.121 0.808-0.235 11.95-11.054 11.95-11.604 0-0.105 0.804-1.03 1.787-2.056 0.984-1.026 1.71-1.993 1.614-2.147-0.095-0.155 0.248-0.648 0.763-1.096s1.268-1.375 1.673-2.06c0.404-0.685 0.877-1.246 1.049-1.246 0.173 0 0.314-0.241 0.314-0.535s0.68-1.509 1.512-2.7c0.831-1.191 1.776-2.705 2.099-3.365s0.692-1.29 0.818-1.4c0.303-0.262 4.179-8.171 4.067-8.297-0.047-0.053 0.272-0.734 0.709-1.512 0.437-0.779 0.795-1.759 0.795-2.18 0-0.42 0.18-0.875 0.4-1.011s0.4-0.591 0.4-1.011c0-0.421 0.36-1.406 0.8-2.189s0.8-1.768 0.8-2.189c0-0.42 0.141-0.851 0.313-0.957s0.356-0.767 0.409-1.468c0.054-0.701 0.273-1.603 0.488-2.004 0.214-0.401 0.39-1.292 0.39-1.979 0-0.688 0.139-1.165 0.308-1.06 0.17 0.105 0.345-0.636 0.39-1.646 0.045-1.011 0.232-1.941 0.415-2.067 0.183-0.127 0.36-1.18 0.393-2.341 0.034-1.162 0.192-2.324 0.353-2.584 0.924-1.496 0.731-24.748-0.243-29.301-0.235-1.098-0.34-2.225-0.233-2.504s0.026-0.952-0.181-1.495c-0.207-0.544-0.412-1.667-0.457-2.497-0.045-0.829-0.223-1.697-0.395-1.927-0.173-0.231-0.36-1.099-0.416-1.928-0.056-0.83-0.244-1.597-0.418-1.705-0.174-0.107-0.316-0.704-0.316-1.326s-0.256-1.624-0.568-2.226c-0.313-0.603-0.462-1.373-0.332-1.711 0.155-0.404 0.075-0.517-0.232-0.327-0.304 0.188-0.468-0.025-0.468-0.608 0-1.023-1.514-5.557-2.047-6.13-0.194-0.209-0.353-0.706-0.353-1.104 0-0.717-0.475-1.877-2.997-7.316-0.714-1.54-1.424-3.205-1.577-3.7-0.154-0.495-0.478-0.9-0.72-0.9-0.241 0-0.327-0.112-0.19-0.249 0.137-0.138-0.214-0.858-0.781-1.6-0.566-0.743-0.891-1.351-0.72-1.351 0.17 0 0.037-0.315-0.295-0.7s-1.108-1.645-1.725-2.8-1.284-2.1-1.482-2.1-0.249-0.18-0.113-0.4 0.076-0.4-0.132-0.4c-0.209 0-1.075-1.078-1.924-2.397-0.849-1.318-1.685-2.398-1.857-2.4-0.172-1e-3 -0.442-0.336-0.6-0.744-0.399-1.031-2.305-3.401-4.787-5.953-1.155-1.187-2.1-2.286-2.1-2.44 0-0.155-0.89-0.987-1.978-1.848-1.087-0.862-1.887-1.713-1.776-1.892s0.056-0.326-0.122-0.327c-0.178 0-0.954-0.55-1.724-1.221-2.088-1.821-2.766-2.132-3.048-1.398" fill="#fc2404"/>
<path d="m157.6 133.2v81.203l-2.8-2.862c-1.54-1.574-2.8-2.999-2.8-3.168 0-0.168-1.08-1.403-2.4-2.744-1.32-1.34-2.4-2.602-2.4-2.804s-1.26-1.642-2.8-3.2c-1.54-1.559-2.8-2.992-2.8-3.185 0-0.194-1.08-1.473-2.4-2.843s-2.4-2.647-2.4-2.838-1.17-1.517-2.6-2.947-2.6-2.768-2.6-2.973-1.08-1.469-2.4-2.81c-1.32-1.34-2.4-2.533-2.4-2.649 0-0.232-0.602-0.919-3.601-4.11-1.099-1.169-1.999-2.29-1.999-2.491s-0.947-1.314-2.105-2.473c-1.157-1.16-2.547-2.739-3.089-3.509-0.541-0.77-1.844-2.243-2.895-3.274s-1.911-1.982-1.911-2.113c0-0.132-0.585-0.861-1.3-1.619-2.162-2.296-2.871-3.131-3.896-4.594-0.54-0.77-1.842-2.243-2.893-3.274s-1.911-2.026-1.911-2.212c0-0.185-1.125-1.537-2.5-3.004s-3.22-3.481-4.1-4.474l-1.6-1.807-38.476-0.015c-22.887-8e-3 -38.569 0.134-38.703 0.352-0.464 0.75 0.612 2.452 3.158 4.999 1.442 1.441 2.621 2.79 2.621 2.997s1.26 1.652 2.8 3.21c1.54 1.559 2.8 2.975 2.8 3.149 0 0.173 1.26 1.636 2.8 3.251s2.8 3.089 2.8 3.275 1.127 1.467 2.504 2.846 2.95 3.137 3.495 3.907c0.546 0.77 1.939 2.349 3.096 3.509 1.158 1.159 2.105 2.253 2.105 2.429 0 0.177 1.26 1.619 2.8 3.206 1.54 1.586 2.8 3.044 2.8 3.24 0 0.195 1.26 1.63 2.8 3.188 1.54 1.559 2.8 2.92 2.8 3.026 0 0.527 3.852 4.602 4.349 4.602 0.177 0 0.522 0.438 0.766 0.973 0.506 1.11 1.586 2.44 3.89 4.79 0.883 0.9 2.047 2.258 2.585 3.018 0.961 1.355 3.033 3.625 7.81 8.559 1.32 1.363 2.659 2.977 2.977 3.586 0.317 0.609 1.487 2.053 2.6 3.208 1.112 1.155 2.544 2.789 3.181 3.632s2.122 2.496 3.3 3.674c1.178 1.179 2.142 2.312 2.142 2.518s0.225 0.466 0.5 0.577c0.4 0.161 0.4 0.208 0 0.233-0.275 0.018-0.5 0.222-0.5 0.454s-0.539 0.997-1.198 1.7-1.199 1.415-1.2 1.582-0.542 0.868-1.202 1.559-1.2 1.427-1.2 1.636-0.54 0.884-1.2 1.501-1.2 1.292-1.2 1.501-0.54 0.945-1.2 1.636-1.2 1.392-1.2 1.559c-1e-3 0.262-0.626 1.095-2.392 3.187-0.224 0.266-0.408 0.579-0.408 0.696 0 0.213-0.969 1.457-1.9 2.437-0.275 0.29-0.5 0.631-0.5 0.759s-0.54 0.797-1.2 1.488-1.2 1.427-1.2 1.636-0.54 0.884-1.2 1.501-1.2 1.337-1.2 1.6-0.54 0.983-1.2 1.6-1.2 1.337-1.2 1.6-0.54 0.983-1.2 1.6-1.2 1.311-1.2 1.542c0 0.232-0.405 0.849-0.9 1.371-1.809 1.907-3.475 4.099-3.487 4.587-7e-3 0.275-0.193 0.5-0.413 0.5s-0.4 0.23-0.4 0.512c0 0.281-0.36 0.771-0.8 1.088s-0.8 0.807-0.8 1.088c0 0.282-0.18 0.512-0.4 0.512s-0.4 0.182-0.4 0.404-0.54 0.968-1.2 1.659-1.2 1.427-1.2 1.636-0.54 0.884-1.2 1.501-1.2 1.337-1.2 1.6-0.54 0.983-1.2 1.6-1.2 1.23-1.2 1.364-0.54 0.808-1.2 1.499-1.2 1.499-1.2 1.796c0 0.298-0.135 0.542-0.3 0.544-0.165 1e-3 -0.75 0.676-1.299 1.5-0.957 1.432-1.165 1.71-2.301 3.066-0.275 0.329-0.5 0.803-0.5 1.054s-0.54 0.96-1.2 1.577-1.2 1.284-1.2 1.482c0 0.199-0.634 1.072-1.408 1.94-0.775 0.868-1.855 2.076-2.4 2.685-0.546 0.609-0.992 1.246-0.992 1.416s-0.72 1.105-1.6 2.077-1.6 1.912-1.6 2.088c0 0.175-0.54 0.884-1.2 1.575s-1.2 1.433-1.2 1.649c0 0.217-0.333 0.685-0.741 1.041-0.407 0.356-1.064 1.277-1.459 2.047s-1.052 1.691-1.459 2.047c-0.408 0.356-0.741 0.779-0.741 0.939 0 0.161-0.54 0.797-1.2 1.414s-1.2 1.337-1.2 1.6-0.54 0.983-1.2 1.6-1.2 1.292-1.2 1.501-0.54 0.945-1.2 1.636-1.2 1.411-1.2 1.6-0.524 0.892-1.164 1.562-1.381 1.624-1.647 2.122c-0.266 0.497-0.825 1.281-1.243 1.741-1.427 1.575-3.58 4.354-4.026 5.196-0.245 0.463-0.777 1.133-1.183 1.489-0.405 0.356-0.737 0.869-0.737 1.139 0 0.271-0.54 0.997-1.2 1.614s-1.2 1.369-1.2 1.672-0.36 0.811-0.8 1.128c-3.208 2.312-3.04 2.323 42.522 2.63l35.923 0.242 0.977-1.136c0.537-0.625 0.977-1.295 0.978-1.489 0-0.194 0.324-0.644 0.719-1s1.156-1.277 1.689-2.047c0.534-0.77 1.305-1.76 1.715-2.2s1.026-1.34 1.37-2 0.959-1.491 1.366-1.847c0.408-0.356 0.741-0.869 0.741-1.139 0-0.271 0.54-0.997 1.2-1.614s1.2-1.247 1.2-1.4 0.54-0.783 1.2-1.4 1.2-1.281 1.2-1.476c0-0.196 0.72-1.152 1.6-2.124s1.6-1.912 1.6-2.088c0-0.175 0.54-0.884 1.2-1.575s1.2-1.411 1.2-1.6 0.54-0.909 1.2-1.6 1.2-1.411 1.2-1.6 0.54-0.909 1.2-1.6 1.2-1.401 1.2-1.578c0-0.178 0.45-0.773 1-1.323s1-1.188 1-1.418 0.18-0.418 0.4-0.418 0.4-0.198 0.4-0.44c0-0.241 0.54-0.943 1.2-1.56s1.2-1.337 1.2-1.6 0.54-0.983 1.2-1.6 1.2-1.337 1.2-1.6 0.54-0.983 1.2-1.6 1.2-1.292 1.2-1.501 0.495-0.907 1.1-1.55 1.91-2.245 2.9-3.559c1.745-2.317 2.038-2.691 3.1-3.959 0.275-0.329 0.5-0.803 0.5-1.054s0.54-0.96 1.2-1.577 1.2-1.319 1.2-1.56c0-0.242 0.18-0.44 0.4-0.44s0.4-0.182 0.4-0.404 0.54-0.968 1.2-1.659 1.2-1.427 1.2-1.636 0.54-0.884 1.2-1.501 1.2-1.239 1.2-1.382c0-0.144 0.539-0.837 1.198-1.54s1.199-1.437 1.2-1.631 0.326-0.644 0.721-1 1.155-1.277 1.689-2.047c0.533-0.77 1.379-1.848 1.881-2.396 0.501-0.548 0.911-1.24 0.911-1.539s0.54-1.048 1.2-1.665 1.2-1.337 1.2-1.6 0.54-0.983 1.2-1.6 1.2-1.247 1.2-1.4 0.54-0.783 1.2-1.4 1.2-1.281 1.2-1.476c0-0.196 0.72-1.152 1.6-2.124s1.6-1.912 1.6-2.088c0-0.175 0.54-0.884 1.2-1.575s1.2-1.411 1.2-1.6 0.54-0.909 1.2-1.6 1.2-1.499 1.2-1.796c0-0.298 0.18-0.541 0.4-0.541 0.264 0 0.4 16.334 0.4 48.202v48.203l32.3-0.103 32.3-0.102 0.111-5.5c0.065-3.217 0.273-5.5 0.5-5.5 0.214 0 0.389 0.18 0.389 0.4s0.349 0.4 0.776 0.4 0.888 0.18 1.024 0.4 0.687 0.4 1.224 0.4 0.976 0.18 0.976 0.4 0.36 0.4 0.8 0.4 0.8 0.18 0.8 0.4 0.45 0.4 1 0.4 1 0.18 1 0.4 0.349 0.4 0.776 0.4 0.888 0.18 1.024 0.4 0.676 0.4 1.2 0.4 1.064 0.18 1.2 0.4 0.766 0.4 1.4 0.4 1.264 0.18 1.4 0.4 0.777 0.4 1.424 0.4 1.176 0.18 1.176 0.4 0.72 0.4 1.6 0.4 1.6 0.18 1.6 0.4 0.619 0.4 1.376 0.4 1.488 0.18 1.624 0.4 1.036 0.4 2 0.4 1.864 0.18 2 0.4 1.281 0.4 2.544 0.4 2.467 0.167 2.676 0.372c1.257 1.23 35.1 1.229 36.36-1e-3 0.209-0.204 1.388-0.371 2.62-0.371s2.411-0.163 2.62-0.361c0.209-0.199 1.19-0.463 2.18-0.588 3.944-0.495 5.215-0.751 5.426-1.093 0.122-0.197 0.92-0.358 1.774-0.358s1.664-0.18 1.8-0.4 0.777-0.4 1.424-0.4 1.176-0.18 1.176-0.4 0.72-0.4 1.6-0.4 1.6-0.18 1.6-0.4 0.54-0.4 1.2-0.4 1.2-0.18 1.2-0.4 0.54-0.4 1.2-0.4 1.2-0.18 1.2-0.4 0.54-0.4 1.2-0.4 1.2-0.18 1.2-0.4 0.362-0.4 0.805-0.4c0.778 0 1.164-0.142 3.09-1.138 0.492-0.254 1.167-0.462 1.5-0.462s0.605-0.18 0.605-0.4 0.439-0.4 0.976-0.4 1.088-0.18 1.224-0.4 0.597-0.4 1.024-0.4 0.776-0.18 0.776-0.4 0.36-0.4 0.8-0.4 0.8-0.18 0.8-0.4 0.36-0.4 0.8-0.4 0.8-0.18 0.8-0.4 0.36-0.4 0.8-0.4 0.8-0.18 0.8-0.4 0.288-0.4 0.641-0.4c0.773 0 4.558-2.076 4.559-2.5 0-0.165 0.36-0.3 0.8-0.3s0.8-0.15 0.8-0.332c0-0.183 0.495-0.587 1.1-0.898 0.605-0.31 1.391-0.881 1.747-1.267 0.356-0.387 0.855-0.703 1.11-0.703s1.23-0.766 2.167-1.703c0.936-0.936 2.147-2.067 2.689-2.512 2.892-2.372 3.204-3.629 1.395-5.604-0.774-0.846-1.408-1.7-1.408-1.899 0-0.198-0.54-0.865-1.2-1.482s-1.2-1.337-1.2-1.6-0.54-0.983-1.2-1.6-1.2-1.337-1.2-1.6-0.54-0.983-1.2-1.6-1.2-1.292-1.2-1.501-0.54-0.945-1.2-1.636-1.2-1.355-1.2-1.476c0-0.122-0.183-0.438-0.407-0.704-1.525-1.808-1.993-2.441-1.993-2.694 0-0.159-0.63-0.976-1.4-1.817s-1.4-1.691-1.4-1.89c0-0.198-0.54-0.865-1.2-1.482s-1.2-1.337-1.2-1.6-0.54-0.983-1.2-1.6-1.2-1.292-1.2-1.501-0.54-0.945-1.2-1.636-1.2-1.365-1.2-1.499-0.54-0.747-1.2-1.364-1.2-1.337-1.2-1.6-0.54-0.983-1.2-1.6-1.2-1.366-1.2-1.665-0.41-0.991-0.911-1.539c-0.502-0.548-1.348-1.626-1.881-2.396-0.534-0.77-1.261-1.67-1.617-2-0.355-0.33-0.763-0.915-0.906-1.3-0.397-1.069-1.837-0.836-3.085 0.5-0.617 0.66-1.274 1.201-1.46 1.202-0.187 1e-3 -0.88 0.504-1.54 1.118-0.66 0.615-2.1 1.728-3.2 2.475s-2.06 1.504-2.133 1.682c-0.074 0.178-0.479 0.323-0.9 0.323-0.422 0-0.767 0.18-0.767 0.4s-0.36 0.4-0.8 0.4-0.801 0.135-0.803 0.3c-4e-3 0.359-1.941 1.3-2.677 1.3-0.286 0-0.52 0.18-0.52 0.4s-0.36 0.4-0.8 0.4-0.8 0.18-0.8 0.4-0.439 0.4-0.976 0.4-1.078 0.163-1.201 0.363c-0.123 0.199-1.123 0.486-2.223 0.637s-2.1 0.438-2.223 0.637c-0.123 0.2-0.934 0.363-1.801 0.363s-1.576 0.18-1.576 0.4c0 0.221-1.04 0.4-2.32 0.4-1.276 0-2.508 0.188-2.738 0.418-0.524 0.524-13.715 0.252-17.142-0.353-4.338-0.766-5.195-0.962-5.6-1.278-0.22-0.172-1.255-0.439-2.3-0.595s-1.9-0.442-1.9-0.637-0.45-0.355-1-0.355-1.001-0.135-1.001-0.3c-1e-3 -0.165-0.991-0.75-2.199-1.3s-2.198-1.135-2.199-1.3c0-0.165-0.361-0.3-0.801-0.3s-0.8-0.15-0.8-0.332c0-0.183-0.495-0.588-1.1-0.9-0.605-0.313-1.449-0.883-1.875-1.268-0.427-0.385-0.922-0.7-1.1-0.7s-1.066-0.72-1.973-1.6-1.897-1.6-2.2-1.6c-0.304 0-0.552-0.153-0.552-0.339 0-0.348-2.379-3.177-4.7-5.59-0.715-0.743-1.3-1.563-1.3-1.823 0-0.259-0.36-0.731-0.8-1.048s-0.8-0.857-0.8-1.2-0.36-0.883-0.8-1.2-0.8-0.897-0.8-1.288c0-0.392-0.18-0.712-0.4-0.712s-0.4-0.36-0.4-0.8-0.18-0.8-0.4-0.8-0.4-0.36-0.4-0.8-0.18-0.8-0.4-0.8-0.4-0.36-0.4-0.8-0.18-0.8-0.4-0.8-0.4-0.272-0.4-0.605-0.18-0.963-0.4-1.4-0.58-1.153-0.8-1.59-0.4-1.157-0.4-1.6-0.18-0.805-0.4-0.805-0.4-0.54-0.4-1.2-0.18-1.2-0.4-1.2-0.4-0.705-0.4-1.567c0-0.861-0.171-1.626-0.38-1.7-0.209-0.073-0.505-2.254-0.659-4.846s-0.433-4.808-0.62-4.924c-0.45-0.278-0.443-12.853 7e-3 -13.131 0.191-0.118 0.476-2.019 0.632-4.223 0.156-2.205 0.45-4.009 0.652-4.009s0.368-0.54 0.368-1.2 0.18-1.2 0.4-1.2 0.4-0.54 0.4-1.2 0.18-1.2 0.4-1.2 0.4-0.36 0.4-0.8 0.18-0.8 0.4-0.8 0.4-0.36 0.4-0.8 0.18-0.8 0.4-0.8 0.4-0.36 0.4-0.8 0.18-0.8 0.4-0.8 0.4-0.36 0.4-0.8 0.18-0.8 0.4-0.8 0.4-0.32 0.4-0.712c0-0.391 0.36-0.971 0.8-1.288s0.8-0.792 0.8-1.055 0.142-0.538 0.315-0.612c0.173-0.073 0.938-0.936 1.7-1.917 1.934-2.493 9.664-10.015 10.292-10.017 0.161 0 0.923-0.54 1.693-1.199s1.625-1.199 1.9-1.199c0.275-1e-3 0.5-0.181 0.5-0.401s0.36-0.4 0.8-0.4 0.8-0.18 0.8-0.4 0.19-0.4 0.422-0.4c0.398 0 2.747-0.985 5.339-2.238 0.639-0.309 1.494-0.562 1.9-0.562 0.407 0 0.739-0.18 0.739-0.4s0.54-0.4 1.2-0.4 1.2-0.162 1.2-0.36c0-0.353 1.618-0.646 6-1.088 1.21-0.122 2.371-0.387 2.58-0.587 0.499-0.479 13.42-0.478 13.42 1e-3 0 0.201 1.125 0.463 2.5 0.582 4.304 0.374 6.3 0.72 6.3 1.092 0 0.198 0.619 0.36 1.376 0.36s1.488 0.18 1.624 0.4 0.599 0.4 1.029 0.4 1.094 0.159 1.476 0.353c0.382 0.195 1.235 0.576 1.895 0.847s1.513 0.652 1.895 0.847c0.382 0.194 0.904 0.353 1.16 0.353 0.634 0 4.912 2.093 5.078 2.485 0.074 0.173 0.479 0.315 0.9 0.315 0.422 0 0.767 0.18 0.767 0.4s0.27 0.4 0.6 0.4 0.6 0.18 0.6 0.4 0.27 0.4 0.6 0.4 0.6 0.18 0.6 0.4 0.27 0.4 0.6 0.4 0.6 0.15 0.6 0.332c0 0.183 0.495 0.588 1.1 0.9 0.605 0.313 1.577 1.063 2.16 1.668 1.592 1.651 4.737 0.648 4.74-1.512 0-0.226 0.36-0.671 0.8-0.988s0.8-0.773 0.8-1.013 0.341-0.802 0.757-1.249c0.417-0.447 1.049-1.336 1.406-1.976 1.116-2.004 1.615-2.73 2.337-3.403 0.385-0.359 0.7-0.857 0.7-1.106s0.18-0.453 0.4-0.453 0.4-0.23 0.4-0.512c0-0.281 0.36-0.771 0.8-1.088s0.8-0.809 0.8-1.092 0.54-1.08 1.2-1.771 1.2-1.459 1.2-1.708 0.36-0.712 0.8-1.029 0.8-0.815 0.8-1.106c0-0.292 0.45-0.98 1-1.53s1-1.164 1-1.364 0.45-0.814 1-1.364 1-1.096 1-1.213c0-0.118 0.81-1.279 1.8-2.581s1.8-2.614 1.8-2.916 0.36-0.809 0.8-1.126 0.8-0.78 0.8-1.029 0.54-1.017 1.2-1.708 1.2-1.488 1.2-1.771 0.36-0.775 0.8-1.092 0.8-0.825 0.8-1.128 0.54-1.055 1.2-1.672 1.2-1.319 1.2-1.56c0-0.242 0.15-0.44 0.332-0.44 0.183 0 0.587-0.495 0.898-1.1 0.31-0.605 0.881-1.391 1.267-1.747 0.903-0.831 0.905-2.302 3e-3 -2.641-0.385-0.145-1.177-0.769-1.76-1.387-0.584-0.619-1.214-1.125-1.4-1.126-0.187 0-0.97-0.54-1.74-1.199s-1.625-1.199-1.9-1.199c-0.275-1e-3 -0.5-0.159-0.5-0.352 0-0.194-0.54-0.576-1.2-0.849s-1.2-0.652-1.2-0.841-0.45-0.457-1-0.595-1-0.411-1-0.607c0-0.197-0.36-0.357-0.8-0.357s-0.8-0.18-0.8-0.4-0.27-0.4-0.6-0.4-0.6-0.18-0.6-0.4-0.27-0.4-0.6-0.4-0.6-0.18-0.6-0.4-0.36-0.4-0.8-0.4-0.8-0.18-0.8-0.4-0.36-0.4-0.8-0.4-0.8-0.18-0.8-0.4-0.36-0.4-0.8-0.4-0.8-0.18-0.8-0.4-0.36-0.4-0.8-0.4-0.8-0.18-0.8-0.4-0.36-0.4-0.8-0.4-0.8-0.18-0.8-0.4-0.272-0.4-0.605-0.4-0.963-0.18-1.4-0.4-1.153-0.58-1.59-0.8-1.067-0.4-1.4-0.4-0.605-0.18-0.605-0.4-0.45-0.4-1-0.4-1-0.18-1-0.4-0.54-0.4-1.2-0.4-1.2-0.18-1.2-0.4-0.439-0.4-0.976-0.4-1.088-0.18-1.224-0.4-0.777-0.4-1.424-0.4-1.176-0.18-1.176-0.4-0.54-0.4-1.2-0.4-1.2-0.16-1.2-0.356-0.585-0.453-1.3-0.571c-0.715-0.119-2.11-0.423-3.1-0.677-0.99-0.253-2.476-0.556-3.303-0.671-0.826-0.115-1.602-0.37-1.723-0.567-0.122-0.197-0.985-0.358-1.918-0.358s-1.874-0.178-2.091-0.395-3.043-0.515-6.28-0.662-5.885-0.419-5.885-0.605-4.32-0.338-9.6-0.338c-6.133 0-9.6 0.144-9.6 0.4 0 0.234-1.452 0.412-3.5 0.428-3.115 0.026-5.31 0.218-11.7 1.023-0.99 0.125-1.971 0.389-2.18 0.588-0.209 0.198-1.053 0.361-1.876 0.361s-1.608 0.18-1.744 0.4-0.856 0.4-1.6 0.4-1.464 0.18-1.6 0.4-0.766 0.4-1.4 0.4-1.264 0.18-1.4 0.4-0.766 0.4-1.4 0.4-1.264 0.18-1.4 0.4-0.599 0.4-1.029 0.4-1.184 0.208-1.676 0.462c-1.926 0.996-2.312 1.138-3.09 1.138-0.443 0-0.805 0.18-0.805 0.4s-0.45 0.4-1 0.4-1 0.18-1 0.4-0.36 0.4-0.8 0.4-0.8 0.136-0.8 0.303c0 0.294-2.779 1.297-3.594 1.297-0.272 0-0.406-11.249-0.406-34v-34h-32.4-32.4v81.203" fill="#040404"/>
</g>
</svg>
