<?xml version="1.0" encoding="UTF-8"?><!DOCTYPE svg PUBLIC "-//W3C//DTD SVG 1.1//EN" "http://www.w3.org/Graphics/SVG/1.1/DTD/svg11.dtd"><svg xmlns="http://www.w3.org/2000/svg" xmlns:xlink="http://www.w3.org/1999/xlink"><defs/><symbol id="icon-amazon" viewBox="0 0 24 24"><path d="M.045 18.02c.072-.116.187-.124.348-.022 3.636 2.11 7.594 3.166 11.87 3.166 2.852 0 5.668-.533 8.447-1.595l.315-.14c.138-.06.234-.1.293-.13.226-.088.39-.046.525.13.12.174.09.336-.12.48-.256.19-.6.41-1.006.654-1.244.743-2.64 1.316-4.185 1.726a17.617 17.617 0 0 1-10.951-.577 17.88 17.88 0 0 1-5.43-3.35c-.1-.074-.15-.15-.15-.22 0-.047.02-.09.05-.13zm6.565-6.218c0-1.005.247-1.863.743-2.577.495-.71 1.17-1.25 2.04-1.615.796-.335 1.756-.575 2.912-.72.39-.046 1.033-.103 1.92-.174v-.37c0-.93-.105-1.558-.3-1.875-.302-.43-.78-.65-1.44-.65h-.182c-.48.046-.896.196-1.246.46-.35.27-.575.63-.675 1.096-.06.3-.206.465-.435.51l-2.52-.315c-.248-.06-.372-.18-.372-.39 0-.046.007-.09.022-.15.247-1.29.855-2.25 1.82-2.88.976-.616 2.1-.975 3.39-1.05h.54c1.65 0 2.957.434 3.888 1.29.135.15.27.3.405.48.12.165.224.314.283.45.075.134.15.33.195.57.06.254.105.42.135.51.03.104.062.3.076.615.01.313.02.493.02.553v5.28c0 .376.06.72.165 1.036.105.313.21.54.315.674l.51.674c.09.136.136.256.136.36 0 .12-.06.226-.18.314-1.2 1.05-1.86 1.62-1.963 1.71-.165.135-.375.15-.63.045a6.062 6.062 0 0 1-.526-.496l-.31-.347a9.391 9.391 0 0 1-.317-.42l-.3-.435c-.81.886-1.603 1.44-2.4 1.665-.494.15-1.093.227-1.83.227-1.11 0-2.04-.343-2.76-1.034-.72-.69-1.08-1.665-1.08-2.94l-.05-.076zm3.753-.438c0 .566.14 1.02.425 1.364.285.34.675.512 1.155.512.045 0 .106-.007.195-.02.09-.016.134-.023.166-.023.614-.16 1.08-.553 1.424-1.178.165-.28.285-.58.36-.91.09-.32.12-.59.135-.8.015-.195.015-.54.015-1.005v-.54c-.84 0-1.484.06-1.92.18-1.275.36-1.92 1.17-1.92 2.43l-.035-.02zm9.162 7.027c.03-.06.075-.11.132-.17.362-.243.714-.41 1.05-.5a8.094 8.094 0 0 1 1.612-.24c.14-.012.28 0 .41.03.65.06 1.05.168 1.172.33.063.09.09.228.09.39v.15c0 .51-.14 1.11-.415 1.8-.278.69-.664 1.248-1.156 1.68-.073.06-.14.09-.197.09-.03 0-.06 0-.09-.012-.09-.044-.107-.12-.064-.24.54-1.26.806-2.143.806-2.64 0-.15-.03-.27-.087-.344-.145-.166-.55-.257-1.224-.257-.243 0-.533.016-.87.046-.363.045-.7.09-1 .135-.09 0-.148-.014-.18-.044-.03-.03-.036-.047-.02-.077 0-.017.006-.03.02-.063v-.06z"/></symbol><symbol id="icon-android" viewBox="0 0 24 24"><path d="M22.146 9.227a1.478 1.478 0 1 0-2.956.002v6.19c0 .81.663 1.48 1.483 1.48.814 0 1.476-.67 1.476-1.48v-6.2h-.01zM5.393 8.032l.004 9.6c0 .885.704 1.59 1.573 1.59h1.063v3.28c0 .82.66 1.482 1.47 1.482s1.467-.66 1.48-1.468v-3.28h1.993v3.28a1.475 1.475 0 1 0 2.952-.007v-3.28h1.078c.87 0 1.573-.71 1.573-1.578v-9.63L5.35 8.03l.04.002zm9.648-2.93a.56.56 0 1 1-.002-1.118.56.56 0 0 1 .002 1.118m-6.06 0a.56.56 0 1 1 .56-.548.565.565 0 0 1-.57.567m6.29-2.9L16.29.33c.06-.105.014-.226-.076-.285a.219.219 0 0 0-.284.09l-1.05 1.9c-.868-.405-1.856-.63-2.89-.63s-2.018.215-2.892.603L8.064.105a.205.205 0 0 0-.278-.08c-.1.045-.136.18-.08.27l1.03 1.875c-2.03 1.047-3.4 3.04-3.4 5.33h13.328c0-2.29-1.368-4.283-3.396-5.33M3.33 7.742c-.817 0-1.48.665-1.48 1.483v6.192a1.48 1.48 0 0 0 2.961 0v-6.19c0-.815-.66-1.478-1.47-1.478"/></symbol><symbol id="icon-apple" viewBox="0 0 24 24"><path d="M7.078 23.55a5.378 5.378 0 0 1-1.244-1.15c-.383-.463-.738-.95-1.064-1.454a14.065 14.065 0 0 1-1.78-3.636c-.5-1.502-.743-2.94-.743-4.347 0-1.57.34-2.94 1.002-4.09a5.78 5.78 0 0 1 2.1-2.182 5.6 5.6 0 0 1 2.84-.84c.35 0 .73.05 1.13.15.29.08.64.21 1.07.37.55.21.85.34.95.37.32.12.59.17.8.17.16 0 .39-.05.645-.13.145-.05.42-.14.81-.31.386-.14.692-.26.935-.35.37-.11.728-.21 1.05-.26.39-.06.777-.08 1.148-.05.71.05 1.36.2 1.94.42 1.02.41 1.843 1.05 2.457 1.96-.26.16-.5.346-.725.55-.487.43-.9.94-1.23 1.505a5.1 5.1 0 0 0-.644 2.52c.015 1.083.29 2.035.84 2.86a5.33 5.33 0 0 0 1.534 1.536c.31.21.582.355.84.45-.12.375-.252.74-.405 1.1-.347.807-.76 1.58-1.25 2.31-.432.63-.772 1.1-1.03 1.41-.402.48-.79.84-1.18 1.097-.43.285-.935.436-1.452.436-.35.015-.7-.03-1.034-.127-.29-.095-.576-.202-.856-.323a6.94 6.94 0 0 0-.905-.34 4.52 4.52 0 0 0-1.164-.147c-.4 0-.79.05-1.16.145-.31.088-.61.196-.907.325-.42.175-.695.29-.855.34a4.47 4.47 0 0 1-.99.175c-.52 0-1.004-.15-1.486-.45zm6.854-18.46c-.68.34-1.326.484-1.973.436-.1-.646 0-1.31.27-2.037.24-.62.56-1.18 1-1.68.46-.52 1.01-.95 1.63-1.26.66-.34 1.29-.52 1.89-.55.08.68 0 1.35-.25 2.07a5.938 5.938 0 0 1-1 1.76c-.435.52-.975.95-1.586 1.26z"/></symbol><symbol id="icon-arrow-right" viewBox="50.4 -114.8 16 16"><path d="M63.1-107.7l-6.7-6.7c-.2-.3-.6-.4-.9-.4-.4 0-.7.1-.9.4l-.8.8c-.3.3-.4.6-.4.9 0 .4.1.7.4.9l5 5-5 5c-.3.3-.4.6-.4.9 0 .4.1.7.4.9l.8.8c.3.3.6.4.9.4.4 0 .7-.1.9-.4l6.7-6.7c.3-.3.4-.6.4-.9 0-.4-.2-.7-.4-.9z"/></symbol><symbol id="icon-back-arrow" viewBox="0 0 16 16"><path d="M4.4 12.4l1-1-2.7-2.7H16V7.3H2.7l2.7-2.7-1-1L0 8z"/></symbol><symbol id="icon-bitcoin" viewBox="0 0 24 24"><path d="M23.638 14.904c-1.602 6.43-8.113 10.34-14.542 8.736C2.67 22.05-1.244 15.525.362 9.105 1.962 2.67 8.475-1.243 14.9.358c6.43 1.605 10.342 8.115 8.738 14.548v-.002zm-6.35-4.613c.24-1.59-.974-2.45-2.64-3.03l.54-2.153-1.315-.33-.525 2.107c-.345-.087-.705-.167-1.064-.25l.526-2.127-1.32-.33-.54 2.165c-.285-.067-.565-.132-.84-.2l-1.815-.45-.35 1.407s.975.225.955.236c.535.136.63.486.615.766l-1.477 5.92c-.075.166-.24.406-.614.314.015.02-.96-.24-.96-.24l-.66 1.51 1.71.426.93.242-.54 2.19 1.32.327.54-2.17c.36.1.705.19 1.05.273l-.51 2.154 1.32.33.545-2.19c2.24.427 3.93.257 4.64-1.774.57-1.637-.03-2.58-1.217-3.196.854-.193 1.5-.76 1.68-1.93h.01zm-3.01 4.22c-.404 1.64-3.157.75-4.05.53l.72-2.9c.896.23 3.757.67 3.33 2.37zm.41-4.24c-.37 1.49-2.662.735-3.405.55l.654-2.64c.744.18 3.137.524 2.75 2.084v.006z"/></symbol><symbol id="icon-blogger" viewBox="0 0 24 24"><path d="M21.976 24H2.026C.9 24 0 23.1 0 21.976V2.026C0 .9.9 0 2.025 0H22.05C23.1 0 24 .9 24 2.025v19.95C24 23.1 23.1 24 21.976 24zM12 3.975H9A5.025 5.025 0 0 0 3.975 9v6A5.025 5.025 0 0 0 9 20.024h6A5.025 5.025 0 0 0 20.024 15v-3.975c0-.6-.45-1.05-1.05-1.05H18a.995.995 0 0 1-.976-.976A5.025 5.025 0 0 0 12 3.973zm3.074 12H9c-.525 0-.975-.45-.975-.975s.45-.976.975-.976h6.074c.526 0 .977.45.977.976s-.45.976-.975.976zm-2.55-7.95c.527 0 .976.45.976.975s-.45.975-.975.975h-3.6c-.525 0-.976-.45-.976-.975s.45-.975.975-.975h3.6z"/></symbol><symbol id="icon-calendar" viewBox="0 0 16 16"><path d="M12 2V0h-2v2H6V0H4v2H0v14h16V2h-4zm2 12H2V4h2v2h2V4h4v2h2V4h2v10z"/></symbol><symbol id="icon-cloudflare" viewBox="0 0 24 24"><path class="st2" d="M16.509 16.845c.148-.507.091-.97-.155-1.315-.225-.317-.605-.5-1.062-.521l-8.659-.113a.155.155 0 0 1-.134-.071.194.194 0 0 1-.02-.155.239.239 0 0 1 .203-.156l8.736-.113c1.034-.048 2.16-.886 2.554-1.913l.5-1.301a.28.28 0 0 0 .013-.168 5.69 5.69 0 1 0-10.938-.584 2.585 2.585 0 0 0-1.793-.5 2.561 2.561 0 0 0-2.223 3.18 3.634 3.634 0 0 0-3.53 3.636c0 .176.013.352.034.528a.174.174 0 0 0 .169.148h15.981a.22.22 0 0 0 .204-.155z"/><path class="st3" d="M19.266 11.281c-.077 0-.162 0-.24.011-.055 0-.105.042-.126.098l-.337 1.175c-.148.506-.092.97.154 1.315.226.317.605.5 1.063.52l1.843.114c.056 0 .105.026.133.07a.2.2 0 0 1 .021.156.238.238 0 0 1-.204.155l-1.92.113c-1.041.049-2.16.887-2.553 1.914l-.141.358c-.028.071.02.141.098.141h6.598a.173.173 0 0 0 .17-.125 4.81 4.81 0 0 0 .175-1.28 4.739 4.739 0 0 0-4.734-4.727"/></symbol><symbol id="icon-comments" viewBox="0 0 16 16"><path d="M5 9h7V7H4v2h1zm7-5H4v2h8V4zm4-4H0v13h8.5l4.5 3v-3h3V0zm-2 11h-3v1.5L8.5 11H2V2h12v9z"/></symbol><symbol id="icon-coursera" viewBox="0 0 24 24"><path d="M23.992 11.806a5.091 5.091 0 0 0-.018-.279v-.004a5.98 5.98 0 0 0-.99-2.814 6.217 6.217 0 0 0-.867-1.039 6.289 6.289 0 0 0-1.64-1.13 7.016 7.016 0 0 0-3.051-.668 7.35 7.35 0 0 0-2.546.444 6.323 6.323 0 0 0-1.822.996 6.45 6.45 0 0 0-.333.29l-.085.085-.117.125h.001l-.056.055-.026.028-.141.147c-.104.117-.202.234-.296.349v-.002l-.004-.003c-.192.233-.37.476-.5.693-.089.14-.176.283-.259.427l-1.147 2.319.002.001-.06.118-.126.256c-.251.509-.521 1.017-.821 1.435-.672.737-1.431 1.098-2.406 1.098-.068 0-.139-.003-.209-.008-.588-.023-1.092-.162-1.539-.427a2.576 2.576 0 0 1-.994-1.03 2.659 2.659 0 0 1-.326-1.369l.002-.034c.031-.76.321-1.352.904-1.861.142-.124.291-.228.446-.32.021-.013.044-.024.065-.036.434-.237.927-.355 1.492-.355l.176.005c.899.034 1.592.314 2.145.863l1.734-3.113a6.845 6.845 0 0 0-1.399-.71c-.019-.007-.04-.016-.06-.022-.062-.022-.123-.045-.186-.065a7.425 7.425 0 0 0-1.716-.348 5.545 5.545 0 0 1-.046-.006c-.091-.005-.184-.016-.275-.02a9.966 9.966 0 0 0-.297-.007h-.055a7.005 7.005 0 0 0-3.028.67 6.176 6.176 0 0 0-2.502 2.166A6.006 6.006 0 0 0 0 12.087c-.002 1.564.568 2.938 1.701 4.093 1.184 1.211 2.721 1.864 4.567 1.941.118.005.235.008.353.008 1.045 0 2.011-.186 2.878-.558.217-.093.427-.201.642-.322.117-.067.228-.139.338-.215l.08-.055.137-.093c.164-.118.317-.246.467-.381l.052-.05c.088-.083.176-.168.259-.255l.311-.352.118-.148.056-.081.055-.079c.462-.776 1.965-3.601 1.965-3.601v-.006l.09-.172.074-.135c.222-.403.382-.689.594-.99l.006-.01c.493-.717 1.344-1.227 2.346-1.313 1.68-.145 3.152.959 3.287 2.465.135 1.507-1.117 2.846-2.798 2.991a3.417 3.417 0 0 1-1.011-.064l-.009.003c-1.232-.257-2.017-1.155-2.404-1.558l-1.617 2.974s.503.506.847.759c.346.253.791.501 1.146.656a7.151 7.151 0 0 0 2.838.589c.121 0 .097 0 .222-.005 1.844-.077 3.489-.784 4.675-1.995 1.123-1.15 1.733-2.463 1.738-4.018v-.047l-.011-.257z"/></symbol><symbol id="icon-dot-net" viewBox="0 0 24 24"><path d="M3.167 7.566v8.748H4.19V9.99a8.979 8.979 0 0 0-.049-1.2h.039a2.908 2.908 0 0 0 .278.547l4.497 6.977h1.257V7.566H9.19v6.152a9.257 9.257 0 0 0 .062 1.286H9.23a9.033 9.033 0 0 0-.355-.585L4.496 7.566zm9.315 0v8.748h4.65l.005-.96h-3.609v-3.032h3.158V11.4h-3.158V8.492h3.389v-.926zm5.438 0v.926h2.514v7.822h1.022V8.493H24v-.926zM.653 15.067a.643.643 0 0 0-.456.206.672.672 0 0 0-.197.48.662.662 0 0 0 .197.48.648.648 0 0 0 .48.201.662.662 0 0 0 .48-.201.657.657 0 0 0 .201-.48.667.667 0 0 0-.201-.48.657.657 0 0 0-.48-.206.643.643 0 0 0-.024 0z"/></symbol><symbol id="icon-download" viewBox="0 0 16 16"><path d="M15.4 4.9C13.7.8 9-1.1 4.9.6S-1.1 7 .6 11.1s6.4 6 10.5 4.3c3-1.2 4.9-4.2 4.9-7.4 0-1.1-.2-2.1-.6-3.1zm-5.9 7.4L8 13.7l-1.4-1.4-3.5-3.5 1.4-1.4L7 9.8V2.7h2v7.1l2.5-2.5L13 8.8l-3.5 3.5z"/></symbol><symbol id="icon-email" viewBox="313.1 3.7 16 16"><path d="M318.5 8.9c0-.2.2-.4.4-.4h4.5c.2 0 .4.2.4.4s-.2.4-.4.4h-4.5c-.3 0-.4-.2-.4-.4zm.4 2.1h4.5c.2 0 .4-.2.4-.4s-.2-.4-.4-.4h-4.5c-.2 0-.4.2-.4.4s.1.4.4.4zm3.5 1.2c0-.2-.2-.4-.4-.4h-3.1c-.2 0-.4.2-.4.4s.2.4.4.4h3.1c.2.1.4-.1.4-.4zm-1.5-8.4l-1.7 1.4c-.2.1-.2.4 0 .6s.4.2.6 0l1.4-1.2 1.4 1.2c.2.1.4.1.6 0s.1-.4 0-.6l-1.7-1.4c-.3-.1-.5-.1-.6 0zm7.8 6.2c.1.1.1.2.1.3v7.9c0 .8-.7 1.5-1.5 1.5h-12.5c-.8 0-1.5-.7-1.5-1.5v-7.9c0-.1.1-.2.1-.3l1.6-1.3c.2-.1.4-.1.6 0s.1.4 0 .6l-1.2 1 1.8 1.3v-4c0-.6.5-1.1 1.1-1.1h7.5c.6 0 1.1.5 1.1 1.1v4l1.8-1.3-1.2-1c-.2-.1-.2-.4 0-.6s.4-.2.6 0l1.6 1.3zm-11.6 2.2l4 2.8 4-2.8V7.6c0-.1-.1-.2-.2-.2h-7.5c-.1 0-.2.1-.2.2v4.6zm10.9-1l-4.7 3.4 3.4 2.6c.2.1.2.4.1.6-.1.2-.4.2-.6.1l-3.6-2.8-1.2.8c-.1.1-.3.1-.5 0l-1.2-.8-3.6 2.8c-.2.1-.4.1-.6-.1-.1-.2-.1-.4.1-.6l3.4-2.6-4.7-3.4v7.1c0 .4.3.6.6.6h12.5c.4 0 .6-.3.6-.6v-7.1z"/></symbol><symbol id="icon-facebook" viewBox="0 0 24 24"><path d="M22.676 0H1.324C.593 0 0 .593 0 1.324v21.352C0 23.408.593 24 1.324 24h11.494v-9.294H9.689v-3.621h3.129V8.41c0-3.099 1.894-4.785 4.659-4.785 1.325 0 2.464.097 2.796.141v3.24h-1.921c-1.5 0-1.792.721-1.792 1.771v2.311h3.584l-.465 3.63H16.56V24h6.115c.733 0 1.325-.592 1.325-1.324V1.324C24 .593 23.408 0 22.676 0"/></symbol><symbol id="icon-folder" viewBox="0 0 16 16"><path d="M0 16h16V6h-2V2H8.5L7 0H0v16zm14-8v6H6V8h8zM7.5 4H12v2H4v8H2V2h4l1.5 2z"/></symbol><symbol id="icon-freecodecamp" viewBox="0 0 24 24"><path d="M23.967 12.317c0 2.5-.854 4.718-2.598 6.681-.635.729-1.143 1.076-1.488 1.076a.483.483 0 0 1-.346-.125.517.517 0 0 1-.15-.35c0-.188.225-.475.674-.889 1.814-1.736 2.727-3.895 2.727-6.456 0-2.846-.943-5.152-2.816-6.936-.374-.342-.57-.627-.57-.852 0-.12.061-.256.164-.345a.547.547 0 0 1 .346-.149c.418 0 1.049.509 1.842 1.527C23.25 7.402 24 9.694 24 12.345l-.033-.028zM0 11.682c0-2.499.854-4.719 2.598-6.681.635-.729 1.143-1.076 1.49-1.076.119 0 .254.033.344.125.09.095.15.189.15.314 0 .188-.225.477-.674.918-1.781 1.744-2.711 3.895-2.711 6.462 0 2.847.951 5.158 2.821 6.935.38.344.569.633.569.854a.487.487 0 0 1-.16.348.53.53 0 0 1-.352.16c-.436 0-1.033-.51-1.828-1.518C.734 16.654 0 14.373 0 11.682zm17.699 6.869H6.715a.672.672 0 0 1-.668-.666.65.65 0 0 1 .668-.668h10.984c.348 0 .668.285.668.668a.653.653 0 0 1-.668.666zm-6-8.919c.197-.025.344.615.361.749.046.353-.071.693-.231 1.003-.597 1.165-1.978 2.104-1.612 3.575.166.635.494 1.076 1.514 1.619-.345.119-.824-.111-1.094-.301-1.199-.816-1.963-2.156-1.888-3.619.03-.464.12-.92.239-1.368.375-1.281 1.139-2.401 1.588-3.647.225-.599.39-1.324.211-1.953a2.363 2.363 0 0 0-.465-.849c-.061-.076-.404-.465-.539-.42.6-.225 1.139-.016 1.662.299.404.24.72.585.959.975.449.719.629 1.542.719 2.381.031.345-.015 1.184.39 1.35.419.179.749-.525.839-.81.195-.645-.06-1.259-.314-1.858.061.121.285.255.389.346l.36.344c.435.449.704 1.004.884 1.604.164.539.24 1.093.27 1.633.074 1.123-.18 2.278-.629 3.311a4.64 4.64 0 0 1-.779 1.273c-.319.373-.748.613-1.093.957.808-.809 1.238-2.127 1.123-3.131a2.835 2.835 0 0 0-.659-1.572s.045.358.087.583c.075.495-.255 1.02-.644.959-.285-.029-.136-.643-.105-.838.105-.584-.03-1.154-.244-1.693-.209-.509-.6-.914-1.198-.823l-.101-.079z"/></symbol><symbol id="icon-git" viewBox="0 0 24 24"><path d="M23.546 10.93L13.067.452a1.55 1.55 0 0 0-2.188 0L8.708 2.627l2.76 2.76a1.838 1.838 0 0 1 2.327 2.341l2.658 2.66a1.838 1.838 0 0 1 1.9 3.039 1.837 1.837 0 0 1-2.6 0 1.846 1.846 0 0 1-.404-1.996L12.86 8.955v6.525c.176.086.342.203.488.348a1.848 1.848 0 0 1 0 2.6 1.844 1.844 0 0 1-2.609 0 1.834 1.834 0 0 1 0-2.598c.182-.18.387-.316.605-.406V8.835a1.834 1.834 0 0 1-.996-2.41L7.636 3.7.45 10.881c-.6.605-.6 1.584 0 2.189l10.48 10.477a1.545 1.545 0 0 0 2.186 0l10.43-10.43a1.544 1.544 0 0 0 0-2.187"/></symbol><symbol id="icon-github" viewBox="0 0 24 24"><path d="M12 .297c-6.63 0-12 5.373-12 12 0 5.303 3.438 9.8 8.205 11.385.6.113.82-.258.82-.577 0-.285-.01-1.04-.015-2.04-3.338.724-4.042-1.61-4.042-1.61C4.422 18.07 3.633 17.7 3.633 17.7c-1.087-.744.084-.729.084-.729 1.205.084 1.838 1.236 1.838 1.236 1.07 1.835 2.809 1.305 3.495.998.108-.776.417-1.305.76-1.605-2.665-.3-5.466-1.332-5.466-5.93 0-1.31.465-2.38 1.235-3.22-.135-.303-.54-1.523.105-3.176 0 0 1.005-.322 3.3 1.23.96-.267 1.98-.399 3-.405 1.02.006 2.04.138 3 .405 2.28-1.552 3.285-1.23 3.285-1.23.645 1.653.24 2.873.12 3.176.765.84 1.23 1.91 1.23 3.22 0 4.61-2.805 5.625-5.475 5.92.42.36.81 1.096.81 2.22 0 1.606-.015 2.896-.015 3.286 0 .315.21.69.825.57C20.565 22.092 24 17.592 24 12.297c0-6.627-5.373-12-12-12"/></symbol><symbol id="icon-gmail" viewBox="0 0 24 24"><path d="M24 4.5v15c0 .85-.65 1.5-1.5 1.5H21V7.387l-9 6.463-9-6.463V21H1.5C.649 21 0 20.35 0 19.5v-15c0-.425.162-.8.431-1.068A1.485 1.485 0 0 1 1.5 3H2l10 7.25L22 3h.5c.425 0 .8.162 1.069.432.27.268.431.643.431 1.068z"/></symbol><symbol id="icon-google" viewBox="0 0 24 24"><path d="M12.24 10.285V14.4h6.806c-.275 1.765-2.056 5.174-6.806 5.174-4.095 0-7.439-3.389-7.439-7.574s3.345-7.574 7.439-7.574c2.33 0 3.891.989 4.785 1.849l3.254-3.138C18.189 1.186 15.479 0 12.24 0c-6.635 0-12 5.365-12 12s5.365 12 12 12c6.926 0 11.52-4.869 11.52-11.726 0-.788-.085-1.39-.189-1.989H12.24z"/></symbol><symbol id="icon-googleanalytics" viewBox="0 0 24 24"><path d="M22.074 24H1.895A1.9 1.9 0 0 1 0 22.104v-4.419a1.9 1.9 0 0 1 1.895-1.896H7.58V9.474A1.9 1.9 0 0 1 9.474 7.58h6.331V1.925C15.805.87 16.674 0 17.729 0h4.346C23.13 0 24 .87 24 1.926v20.148C24 23.13 23.13 24 22.074 24z"/></symbol><symbol id="icon-googlechrome" viewBox="0 0 24 24"><path d="M16.214 8.69l6.715-1.679A12.027 12.027 0 0 1 24 11.972C24 18.57 18.569 24 11.968 24c-.302 0-.605-.011-.907-.034l4.905-8.347c.356-.376.655-.803.881-1.271a5.451 5.451 0 0 0-.043-4.748 5.156 5.156 0 0 0-.59-.91zm-3.24 8.575l-2.121 6.682C4.738 23.345 0 18.14 0 11.977 0 9.592.709 7.26 2.038 5.279l4.834 8.377c.18.539 1.119 2.581 3.067 3.327.998.382 2.041.481 3.035.282zM11.973 7.62c-2.006.019-3.878 1.544-4.281 3.512a4.478 4.478 0 0 0 1.237 4.032c1.214 1.186 3.14 1.578 4.734.927 1.408-.576 2.47-1.927 2.691-3.431.272-1.856-.788-3.832-2.495-4.629a4.413 4.413 0 0 0-1.886-.411zM7.046 9.962L2.259 4.963A12.043 12.043 0 0 1 11.997 0c4.56 0 8.744 2.592 10.774 6.675H12.558c-1.811-.125-3.288.52-4.265 1.453a5.345 5.345 0 0 0-1.247 1.834z"/></symbol><symbol id="icon-googledrive" viewBox="0 0 24 24"><path d="M4.433 22.396l4-6.929H24l-4 6.929H4.433zm3.566-6.929l-3.998 6.929L0 15.467 7.785 1.98l3.999 6.931-3.785 6.556zm15.784-.375h-7.999L7.999 1.605h8.002l7.785 13.486h-.003z"/></symbol><symbol id="icon-googleplay" viewBox="0 0 24 24"><path d="M1.22 0c-.03.093-.06.185-.06.308v23.229c0 .217.061.34.184.463l11.415-12.093L1.22 0zm12.309 12.708l2.951 3.045-4.213 2.4s-5.355 3.044-8.308 4.739l9.57-10.184zm.801-.831l3.166 3.292c.496-.276 4.371-2.492 4.924-2.8.584-.338.525-.8.029-1.046-.459-.255-4.334-2.475-4.92-2.835l-3.203 3.392.004-.003zm-.803-.8l2.984-3.169-4.259-2.431S5.309 1.505 2.999.179l10.53 10.898h-.002z"/></symbol><symbol id="icon-googleplus" viewBox="0 0 24 24"><path d="M7.635 10.909v2.619h4.335c-.173 1.125-1.31 3.295-4.331 3.295-2.604 0-4.731-2.16-4.731-4.823 0-2.662 2.122-4.822 4.728-4.822 1.485 0 2.479.633 3.045 1.178l2.073-1.994c-1.33-1.245-3.056-1.995-5.115-1.995C3.412 4.365 0 7.785 0 12s3.414 7.635 7.635 7.635c4.41 0 7.332-3.098 7.332-7.461a6.96 6.96 0 0 0-.12-1.265H7.635zm16.365 0h-2.183V8.726h-2.183v2.183h-2.182v2.181h2.184v2.184h2.189V13.09H24"/></symbol><symbol id="icon-home" viewBox="0 0 24 24"><path d="M12 9.185l7 6.514V22H5v-6.301l7-6.514zm0-2.732l-9 8.375V24h18v-9.172l-9-8.375zM14 21h-4v-6h4v6zm10-8.852l-1.361 1.465L12 3.73 1.361 13.598 0 12.133 12 1l12 11.148z"/></symbol><symbol id="icon-javascript" viewBox="0 0 24 24"><path d="M0 0h24v24H0V0zm22.034 18.276c-.175-1.095-.888-2.015-3.003-2.873-.736-.345-1.554-.585-1.797-1.14-.091-.33-.105-.51-.046-.705.15-.646.915-.84 1.515-.66.39.12.75.42.976.9 1.034-.676 1.034-.676 1.755-1.125-.27-.42-.404-.601-.586-.78-.63-.705-1.469-1.065-2.834-1.034l-.705.089c-.676.165-1.32.525-1.71 1.005-1.14 1.291-.811 3.541.569 4.471 1.365 1.02 3.361 1.244 3.616 2.205.24 1.17-.87 1.545-1.966 1.41-.811-.18-1.26-.586-1.755-1.336l-1.83 1.051c.21.48.45.689.81 1.109 1.74 1.756 6.09 1.666 6.871-1.004.029-.09.24-.705.074-1.65l.046.067zm-8.983-7.245h-2.248c0 1.938-.009 3.864-.009 5.805 0 1.232.063 2.363-.138 2.711-.33.689-1.18.601-1.566.48-.396-.196-.597-.466-.83-.855-.063-.105-.11-.196-.127-.196l-1.825 1.125c.305.63.75 1.172 1.324 1.517.855.51 2.004.675 3.207.405.783-.226 1.458-.691 1.811-1.411.51-.93.402-2.07.397-3.346.012-2.054 0-4.109 0-6.179l.004-.056z"/></symbol><symbol id="icon-jekyll" viewBox="0 0 24 24"><path d="M8.073 24c-.348 0-.689-.063-1.02-.189a2.852 2.852 0 0 1-1.726-3.402l-.015-.006.09-.226L12.399 2.01c.105-.27.057-.91.006-1.267a.486.486 0 0 1 .008-.24l.008-.023.006-.015V.458l.009-.019c.108-.292.45-.439 1.008-.439.673 0 1.602.21 2.551.573.797.307 1.523.689 2.033 1.075.602.45.842.854.707 1.2l-.031.045-.016.015a.762.762 0 0 1-.15.165c-.314.271-.764.735-.84.945l-7.063 18.421-.016-.006a2.873 2.873 0 0 1-2.543 1.561H8.07l.003.006zm-2.187-3.718l-.02.05A2.362 2.362 0 0 0 7.23 23.35c.271.105.551.154.837.154.971 0 1.83-.585 2.188-1.5l.027-.061 6.959-18.09c.146-.39.84-1.02.979-1.14l.016-.016c.012-.015.02-.015.02-.03 0-.06-.061-.27-.557-.645-.479-.36-1.154-.72-1.904-1.005-.868-.328-1.768-.539-2.368-.539-.39 0-.524.082-.545.126v.04c.016.104.147 1.035-.034 1.515l-6.962 18.12v.003zm8.95-11.507s-.964 1.109-1.843 1.509c-.88.398-1.529.293-2.32.756-.789.461-1.188 1.103-1.188 1.103L6.27 20.505c-.348.944.168 2.05 1.125 2.42.96.369 2.04-.12 2.412-1.056l5.029-13.094zM9.905 18.76c.104-.041.225 0 .266.105.042.104 0 .222-.105.264-.104.043-.225 0-.266-.104a.204.204 0 0 1 .105-.265zm-1.014-1.802a.297.297 0 0 1-.397-.155.296.296 0 0 1 .154-.397c.154-.07.335 0 .398.153.074.15.008.314-.155.39v.009zm.286-1.096a.582.582 0 0 1 .287-.758.574.574 0 0 1 .75.285.583.583 0 0 1-.285.757c-.3.126-.629 0-.765-.285l.013.001zm2.426-2.258a.295.295 0 0 1 .398.15c.07.154 0 .336-.153.399a.297.297 0 0 1-.399-.155.293.293 0 0 1 .154-.397v.003zm-1.293-1.379c.105-.042.226 0 .266.105.043.104 0 .226-.104.266-.104.042-.226 0-.265-.104a.205.205 0 0 1 .103-.267zM13.681 1.14c.1-.261.993-.162 1.995.226.999.384 1.729.909 1.63 1.17-.104.264-.997.164-1.996-.221-1.005-.385-1.734-.91-1.632-1.176h.003z"/></symbol><symbol id="icon-linkedin" viewBox="0 0 24 24"><path d="M20.447 20.452h-3.554v-5.569c0-1.328-.027-3.037-1.852-3.037-1.853 0-2.136 1.445-2.136 2.939v5.667H9.351V9h3.414v1.561h.046c.477-.9 1.637-1.85 3.37-1.85 3.601 0 4.267 2.37 4.267 5.455v6.286zM5.337 7.433a2.062 2.062 0 0 1-2.063-2.065 2.064 2.064 0 1 1 2.063 2.065zm1.782 13.019H3.555V9h3.564v11.452zM22.225 0H1.771C.792 0 0 .774 0 1.729v20.542C0 23.227.792 24 1.771 24h20.451C23.2 24 24 23.227 24 22.271V1.729C24 .774 23.2 0 22.222 0h.003z"/></symbol><symbol id="icon-loading" viewBox="149.8 37.8 499.818 525"><path d="M557.8 187.8c13.8 0 24.601-10.8 24.601-24.6S571.6 138.6 557.8 138.6s-24.6 10.8-24.6 24.6c0 13.2 10.8 24.6 24.6 24.6zm61.2 90.6c-16.8 0-30.6 13.8-30.6 30.6s13.8 30.6 30.6 30.6 30.6-13.8 30.6-30.6c.6-16.8-13.2-30.6-30.6-30.6zm-61.2 145.2c-20.399 0-36.6 16.2-36.6 36.601 0 20.399 16.2 36.6 36.6 36.6 20.4 0 36.601-16.2 36.601-36.6C595 439.8 578.2 423.6 557.8 423.6zM409 476.4c-24 0-43.2 19.199-43.2 43.199s19.2 43.2 43.2 43.2 43.2-19.2 43.2-43.2S433 476.4 409 476.4zM260.8 411c-27 0-49.2 22.2-49.2 49.2s22.2 49.2 49.2 49.2 49.2-22.2 49.2-49.2-22.2-49.2-49.2-49.2zm-10.2-102c0-27.6-22.8-50.4-50.4-50.4-27.6 0-50.4 22.8-50.4 50.4 0 27.6 22.8 50.4 50.4 50.4 27.6 0 50.4-22.2 50.4-50.4zm10.2-199.8c-30 0-54 24-54 54s24 54 54 54 54-24 54-54-24.6-54-54-54zM409 37.8c-35.4 0-63.6 28.8-63.6 63.6S374.2 165 409 165s63.6-28.8 63.6-63.6-28.2-63.6-63.6-63.6z"/></symbol><symbol id="icon-location" viewBox="0 0 24 24"><path d="M12 0C7.802 0 4 3.403 4 7.602 4 11.8 7.469 16.812 12 24c4.531-7.188 8-12.2 8-16.398C20 3.403 16.199 0 12 0zm0 11a3 3 0 1 1 0-6 3 3 0 0 1 0 6z"/></symbol><symbol id="icon-microsoft" viewBox="0 0 24 24"><path d="M11.4 24H0V12.6h11.4V24zM24 24H12.6V12.6H24V24zM11.4 11.4H0V0h11.4v11.4zm12.6 0H12.6V0H24v11.4z"/></symbol><symbol id="icon-node-dot-js" viewBox="0 0 24 24"><path d="M11.435.153l-9.37 5.43c-.35.203-.564.578-.563.983V17.43c0 .404.215.78.564.982l9.37 5.435c.35.203.78.203 1.13 0l9.366-5.433a1.14 1.14 0 0 0 .565-.982V6.566c0-.404-.216-.78-.566-.984L12.567.152a1.124 1.124 0 0 0-1.13 0"/></symbol><symbol id="icon-npm" viewBox="0 0 24 24"><path d="M0 7.334v8h6.666v1.332H12v-1.332h12v-8H0zm6.666 6.664H5.334v-4H3.999v4H1.335V8.667h5.331v5.331zm4 0v1.336H8.001V8.667h5.334v5.332h-2.669v-.001zm12.001 0h-1.33v-4h-1.336v4h-1.335v-4h-1.33v4h-2.671V8.667h8.002v5.331z"/><path d="M10.665 10H12v2.667h-1.335V10z"/></symbol><symbol id="icon-paypal" viewBox="0 0 24 24"><path d="M6.908 24H3.804c-.664 0-1.086-.529-.936-1.18l.149-.674h2.071c.666 0 1.336-.533 1.482-1.182l1.064-4.592c.15-.648.816-1.18 1.48-1.18h.883c3.789 0 6.734-.779 8.84-2.34s3.16-3.6 3.16-6.135c0-1.125-.195-2.055-.588-2.789 0-.016-.016-.031-.016-.046l.135.075c.75.465 1.32 1.064 1.711 1.814.404.75.598 1.68.598 2.791 0 2.535-1.049 4.574-3.164 6.135-2.1 1.545-5.055 2.324-8.834 2.324h-.9c-.66 0-1.334.525-1.484 1.186L8.39 22.812c-.149.645-.81 1.17-1.47 1.17L6.908 24zm-2.677-2.695H1.126c-.663 0-1.084-.529-.936-1.18L4.563 1.182C4.714.529 5.378 0 6.044 0h6.465c1.395 0 2.609.098 3.648.289 1.035.189 1.92.519 2.684.99.736.465 1.322 1.072 1.697 1.818.389.748.584 1.68.584 2.797 0 2.535-1.051 4.574-3.164 6.119-2.1 1.561-5.056 2.326-8.836 2.326h-.883c-.66 0-1.328.524-1.478 1.169L5.7 20.097c-.149.646-.817 1.172-1.485 1.172l.016.036zm7.446-17.369h-1.014c-.666 0-1.332.529-1.48 1.178l-.93 4.02c-.15.648.27 1.179.93 1.179h.766c1.664 0 2.97-.343 3.9-1.021.929-.686 1.395-1.654 1.395-2.912 0-.83-.301-1.445-.9-1.84-.6-.404-1.5-.605-2.686-.605l.019.001z"/></symbol><symbol id="icon-pdf" viewBox="379 72.1 16 16"><path d="M386.8 79.1c-.1.2-.1.4-.2.7-.2.7-.3.9-.4 1.1-.1.2-.1.2-.2.5 0 .1-.1.2-.2.4.5-.2.8-.3 1.3-.5l.3-.1c.2-.1.4-.1.5-.2.1 0 .1 0 .2-.1-.1-.1-.2-.3-.4-.5-.3-.3-.6-.7-.9-1.3zm-3.6 5.2l-.1.4c.1 0 .2.1.2 0 .1-.1.2-.2.4-.6.1-.1.1-.2.2-.4 0 0 0-.1.1-.1-.4.3-.7.5-.8.7zm3.3-7.6c.1-.6.1-.7 0-1.2v-.1s0 .1-.1.1c-.1.3-.1.6 0 1 .1.1.1.1.1.2z"/><path d="M391.3 72.1h-8.6c-1.1 0-2 .9-2 2.1V86c0 1.1.9 2.1 2 2.1h6.6l4.1-4.1v-9.8c0-1.2-1-2.1-2.1-2.1zm-2.1 10c-.2-.2-.3-.3-.5-.4-.2 0-.3.1-.5.2-.1.1-.3.1-.6.2l-.3.1c-.6.2-.9.3-1.6.6-.2.1-.3.1-.5.2v.1c0 .1-.2.5-.6 1.1-.1.1-.1.3-.2.4-.2.4-.3.6-.6.8-.2.2-.4.2-.7.2-.2 0-.5-.1-.7-.2-.5-.4-.3-1.1-.2-1.4.2-.5.7-.8 1.4-1.2.3-.2.6-.3.8-.5.2-.3.4-.8.6-1.2.1-.3.1-.3.2-.5 0-.1.1-.4.4-1.1.2-.7.3-1.1.5-1.5-.3-.6-.5-1-.6-1.4-.1-.5-.1-.9 0-1.4.2-.7.7-.8.8-.8.2 0 .7.1.9.8.1.6.1.9-.1 1.7l-.1.3c0 .2-.1.5-.1.6.1.1.1.2.2.3.4.8.7 1.2 1.1 1.8.2.3.4.5.6.7h.2c.3-.1.5-.1.7-.1.2 0 .5 0 .8.1.8.1 1 .7 1 1 0 .2 0 .8-.8.9-.2.1-.6.1-.8 0 0 .1-.3 0-.7-.4zm.5 5V85c0-.3.3-.6.6-.6h2.1l-2.7 2.7z"/><path d="M390.8 81.9h.1v-.1s-.1-.1-.3-.1c-.3-.1-.5-.1-.7-.1h-.2c.3.3.5.4.6.4.1-.1.3-.1.5-.1z"/></symbol><symbol id="icon-quora" viewBox="0 0 24 24"><path d="M12.738 18.701c-.831-1.635-1.805-3.287-3.708-3.287a2.6 2.6 0 0 0-1.059.209l-.646-1.289c.786-.678 2.058-1.214 3.693-1.214 2.544 0 3.851 1.229 4.888 2.792.613-1.335.904-3.14.904-5.375 0-5.582-1.744-8.447-5.822-8.447-4.018 0-5.757 2.865-5.757 8.447 0 5.553 1.739 8.389 5.757 8.389.64 0 1.22-.069 1.75-.225zm.996 1.947c-.881.237-1.817.366-2.743.366-5.352 0-10.59-4.269-10.59-10.478C.402 4.271 5.639 0 10.991 0c5.441 0 10.628 4.238 10.628 10.537 0 3.504-1.635 6.351-4.01 8.191.764 1.148 1.543 1.914 2.652 1.914 1.199 0 1.68-.915 1.77-1.649h1.557c.092.974-.402 5.007-4.766 5.007-2.652 0-4.047-1.528-5.096-3.328l.008-.024z"/></symbol><symbol id="icon-raspberrypi" viewBox="0 0 24 24"><path d="M16.111 17.338c-.857.989-1.334 2.79-.709 3.371.596.449 2.201.391 3.385-1.23.86-1.08.569-2.893.081-3.372-.73-.555-1.778.164-2.757 1.243v-.012zm-8.057.3c-.908-1.04-2.088-1.658-2.851-1.199-.51.382-.605 1.685.123 2.967 1.078 1.524 2.596 1.679 3.221 1.307.659-.488.3-2.137-.493-3.075zm4.105 3.145c-1.103-.026-2.798.439-2.776 1.032-.018.403 1.331 1.572 2.705 1.513 1.326.03 2.699-1.139 2.682-1.649-.004-.523-1.498-.927-2.607-.884l-.004-.012zm-.075-13.944c-1.275-.032-2.502.933-2.502 1.493-.004.68 1.008 1.376 2.51 1.394 1.543.01 2.518-.559 2.532-1.26.016-.794-1.394-1.639-2.518-1.627h-.022zm-3.071.532c-2.135-.345-3.913.9-3.842 3.192.07.884 4.63-3.041 3.843-3.177l-.001-.015zm9.749 3.251c.071-2.277-1.709-3.521-3.844-3.176-.787.135 3.772 4.061 3.844 3.176zm.364.824c-1.239-.329-.42 5.049.588 4.615 1.109-.869 1.466-3.446-.588-4.6v-.015zM4.228 16.121c1.007.45 1.827-4.929.589-4.6-2.053 1.153-1.698 3.73-.589 4.615v-.015zm9.415-5.948c-1.146.75-1.354 2.428-.461 3.746.891 1.318 2.543 1.813 3.691 1.078 1.146-.733 1.353-2.412.462-3.746-.892-1.333-2.545-1.813-3.692-1.063v-.015zm-3.096.135c-1.146-.734-2.799-.254-3.689 1.064-.892 1.334-.686 3.012.461 3.761s2.799.269 3.691-1.064c.885-1.318.675-2.997-.465-3.745l.002-.016zm4.369 7.162c-.009-1.393-1.252-2.518-2.781-2.502-1.527.016-2.761 1.139-2.754 2.532v.029c.01 1.394 1.254 2.517 2.783 2.502 1.527 0 2.756-1.138 2.742-2.517v-.029l.01-.015zm3.209-15.133c-2.307 1.184-3.652 2.128-4.389 2.938.377 1.498 2.344 1.558 3.063 1.512-.147-.06-.271-.149-.315-.269.18-.12.821-.016 1.268-.255-.171-.03-.252-.061-.329-.195.419-.135.875-.24 1.141-.465-.143 0-.278.03-.467-.09.377-.194.778-.359 1.095-.658-.196 0-.406 0-.466-.075.346-.21.635-.435.877-.704-.272.045-.39.016-.454-.03.261-.255.593-.479.749-.81-.203.076-.391.09-.522 0 .091-.194.47-.314.69-.779-.215.03-.441.046-.486 0 .098-.389.269-.613.435-.854-.457 0-1.15 0-1.117-.029l.283-.285c-.448-.12-.904.015-1.236.12-.149-.105 0-.255.185-.405-.39.061-.733.135-1.034.256-.164-.15.105-.285.24-.436-.599.12-.839.27-1.094.42-.18-.165-.015-.314.104-.449-.449.164-.674.374-.914.568-.09-.104-.209-.179-.06-.449-.314.18-.554.39-.734.629-.194-.134-.119-.299-.119-.449-.33.27-.54.54-.794.811-.061-.031-.105-.15-.135-.346-.779.75-1.889 2.623-.285 3.356 1.349-1.094 2.981-1.903 4.779-2.503l.041-.075zm-12.259 0c1.798.6 3.419 1.408 4.777 2.518 1.596-.75.493-2.623-.282-3.356-.041.194-.085.329-.135.359-.255-.27-.462-.54-.788-.81 0 .15.077.33-.117.45a2.275 2.275 0 0 0-.725-.63c.149.256.025.33-.056.449-.24-.225-.465-.434-.899-.599.12.149.3.3.12.465-.239-.149-.494-.3-1.078-.42.135.149.404.3.238.45A4.31 4.31 0 0 0 5.886.955c.181.15.342.289.192.405-.345-.12-.806-.255-1.255-.135l.284.284c.03.037-.659.03-1.121.035.165.225.337.449.435.854-.045.045-.27.016-.483 0 .225.449.599.57.688.765-.135.096-.314.075-.523 0 .164.314.494.539.748.81-.074.044-.18.074-.464.037.239.26.524.494.869.704-.06.07-.271.069-.479.075.314.304.719.464 1.094.663-.195.136-.33.105-.465.105.255.225.72.329 1.139.464-.09.135-.164.165-.344.195.449.254 1.078.135 1.258.27-.045.119-.164.209-.314.27.719.045 2.697-.015 3.072-1.514-.736-.807-2.084-1.752-4.391-2.921l.04.016zM7.6.103c.236-.007.436.135.652.201.529-.17.65.063.91.159.577-.12.752.141 1.029.419l.322-.009c.869.507 1.305 1.536 1.457 2.065.152-.529.584-1.559 1.457-2.065l.321.007c.277-.283.453-.539 1.029-.418.261-.105.38-.33.911-.166.33-.104.62-.375 1.057-.045.368-.149.726-.195 1.045.09.495-.06.653.061.774.21.108 0 .809-.104 1.132.36.81-.09 1.064.464.774.988.165.255.337.494-.05.975.15.269.062.553-.27.913.091.374-.074.63-.374.839.06.51-.48.81-.629.914-.061.3-.181.584-.795.734-.089.449-.464.523-.824.614 1.185.675 2.188 1.558 2.188 3.731l.181.299c1.349.809 2.562 3.402.674 5.514-.119.659-.329 1.124-.511 1.648-.269 2.113-2.082 3.101-2.561 3.221-.689.525-1.438 1.02-2.442 1.363-.942.961-1.976 1.336-2.994 1.336h-.092c-1.033 0-2.063-.375-3.012-1.335-1.007-.344-1.754-.838-2.447-1.363-.479-.12-2.283-1.107-2.562-3.221-.187-.524-.394-1.004-.518-1.662-1.894-2.113-.681-4.705.666-5.515l.172-.3c0-2.172 1.005-3.057 2.188-3.73-.359-.09-.72-.165-.823-.615-.615-.15-.735-.434-.795-.734-.15-.105-.689-.404-.629-.928-.3-.211-.465-.465-.375-.854-.314-.346-.404-.645-.27-.915-.39-.479-.209-.733-.045-.974C3.236 1.329 3.491.76 4.3.85 4.614.385 5.32.491 5.423.491c.121-.15.285-.285.779-.225.314-.285.675-.24 1.049-.102.151-.12.286-.164.406-.164L7.6.103z"/></symbol><symbol id="icon-reddit" viewBox="0 0 24 24"><path d="M24 11.779a2.654 2.654 0 0 0-4.497-1.899c-1.81-1.191-4.259-1.949-6.971-2.046l1.483-4.669 4.016.941-.006.058a2.17 2.17 0 0 0 2.174 2.163 2.17 2.17 0 0 0 2.172-2.163 2.171 2.171 0 0 0-4.193-.785l-4.329-1.015a.37.37 0 0 0-.44.249L11.755 7.82c-2.838.034-5.409.798-7.3 2.025a2.643 2.643 0 0 0-1.799-.712A2.654 2.654 0 0 0 0 11.779c0 .97.533 1.811 1.317 2.271a4.716 4.716 0 0 0-.086.857C1.231 18.818 6.039 22 11.95 22s10.72-3.182 10.72-7.093c0-.274-.029-.544-.075-.81A2.633 2.633 0 0 0 24 11.779zM6.776 13.595c0-.868.71-1.575 1.582-1.575.872 0 1.581.707 1.581 1.575s-.709 1.574-1.581 1.574-1.582-.706-1.582-1.574zm9.061 4.669c-.797.793-2.048 1.179-3.824 1.179L12 19.44l-.013.003c-1.777 0-3.028-.386-3.824-1.179a.369.369 0 0 1 0-.523.372.372 0 0 1 .526 0c.65.647 1.729.961 3.298.961l.013.003.013-.003c1.569 0 2.648-.315 3.298-.962a.373.373 0 0 1 .526 0 .37.37 0 0 1 0 .524zm-.189-3.095a1.58 1.58 0 0 1-1.581-1.574c0-.868.709-1.575 1.581-1.575s1.581.707 1.581 1.575-.709 1.574-1.581 1.574z"/></symbol><symbol id="icon-reply" viewBox="0 0 16 16"><path d="M11.6 12.8l-1-1 2.7-2.7H5.5C.2 9.1 0 3.9 0 3.7v-.5h1.4v.5c0 .2 0 4.1 4.1 4.1h7.8L10.6 5l1-1L16 8.4l-4.4 4.4z"/></symbol><symbol id="icon-rss" viewBox="0 0 24 24"><path d="M19.199 24C19.199 13.467 10.533 4.8 0 4.8V0c13.165 0 24 10.835 24 24h-4.801zM3.291 17.415a3.3 3.3 0 0 1 3.293 3.295A3.303 3.303 0 0 1 3.283 24C1.47 24 0 22.526 0 20.71s1.475-3.294 3.291-3.295zM15.909 24h-4.665c0-6.169-5.075-11.245-11.244-11.245V8.09c8.727 0 15.909 7.184 15.909 15.91z"/></symbol><symbol id="icon-samsung" viewBox="0 0 24 24"><path d="M19.817 10.28l.046 2.694h-.023l-.78-2.693h-1.283v3.392h.848l-.046-2.785h.023l.836 2.785h1.227v-3.392zm-16.15 0l-.641 3.428h.928l.47-3.118h.023l.459 3.118h.916l-.63-3.427zm5.181 0l-.424 2.614h-.023l-.424-2.613H6.58l-.069 3.427h.86l.023-3.083h.011l.573 3.083h.871l.573-3.083h.023l.023 3.083h.86l-.08-3.427zm-7.266 2.454a.48.48 0 0 1 .011.252c-.023.114-.103.229-.332.229-.218 0-.344-.126-.344-.31v-.332H0v.264c0 .768.607.997 1.25.997.618 0 1.134-.218 1.214-.78.046-.298.012-.492 0-.561-.16-.722-1.467-.929-1.559-1.33a.492.492 0 0 1 0-.183c.023-.115.104-.23.31-.23.206 0 .32.127.32.31v.206h.86v-.24c0-.745-.676-.86-1.157-.86-.608 0-1.112.206-1.204.757a1.04 1.04 0 0 0 .012.458c.137.71 1.364.917 1.536 1.352m11.152 0c.034.08.022.184.011.253-.023.114-.103.229-.332.229-.218 0-.344-.126-.344-.31v-.332h-.917v.264c0 .756.596.985 1.238.985.619 0 1.123-.206 1.203-.779.046-.298.012-.481 0-.562-.137-.71-1.433-.928-1.524-1.318a.488.488 0 0 1 0-.183c.023-.115.103-.23.31-.23.194 0 .32.127.32.31v.206h.848v-.24c0-.745-.665-.86-1.146-.86-.607 0-1.1.195-1.192.757-.023.149-.023.286.012.458.137.71 1.34.905 1.513 1.352m2.888.459c.24 0 .31-.16.332-.252.012-.035.012-.092.012-.126V10.28h.87v2.464c0 .069 0 .195-.01.23-.058.641-.562.847-1.193.847-.63 0-1.134-.206-1.192-.848 0-.034-.011-.16-.011-.229V10.28h.87v2.533c0 .046 0 .091.012.126 0 .091.07.252.31.252m7.152-.034c.252 0 .332-.16.355-.253.011-.034.011-.091.011-.126v-.493h-.355v-.504H24v.917c0 .069 0 .115-.011.23-.058.63-.597.847-1.204.847s-1.146-.217-1.203-.848c-.012-.114-.012-.16-.012-.229v-1.444c0-.057.012-.172.012-.23.08-.641.596-.847 1.203-.847s1.135.206 1.203.848c.012.103.012.229.012.229v.115h-.86v-.195s0-.08-.011-.126c-.012-.08-.08-.252-.344-.252-.252 0-.32.16-.344.252-.011.045-.011.103-.011.16v1.57c0 .046 0 .092.011.126 0 .092.092.253.333.253"/></symbol><symbol id="icon-sass" viewBox="0 0 24 24"><path d="M12 0c6.627 0 12 5.373 12 12s-5.373 12-12 12S0 18.627 0 12 5.373 0 12 0zM9.615 15.998c.175.645.156 1.248-.024 1.792l-.065.18c-.024.061-.052.12-.078.176-.14.29-.326.56-.555.81-.698.759-1.672 1.047-2.09.805-.45-.262-.226-1.335.584-2.19.871-.918 2.12-1.509 2.12-1.509v-.003l.108-.061zm9.911-10.861c-.542-2.133-4.077-2.834-7.422-1.645-1.989.707-4.144 1.818-5.693 3.267C4.568 8.48 4.275 9.98 4.396 10.607c.427 2.211 3.457 3.657 4.703 4.73v.006c-.367.18-3.056 1.529-3.686 2.925-.675 1.47.105 2.521.615 2.655 1.575.436 3.195-.36 4.065-1.649.84-1.261.766-2.881.404-3.676.496-.135 1.08-.195 1.83-.104 2.101.24 2.521 1.56 2.43 2.1-.09.539-.523.854-.674.944-.15.091-.195.12-.181.181.015.09.091.09.21.075.165-.03 1.096-.45 1.141-1.471.045-1.29-1.186-2.729-3.375-2.7-.9.016-1.471.091-1.875.256a.362.362 0 0 0-.105-.105c-1.35-1.455-3.855-2.475-3.75-4.41.03-.705.285-2.564 4.8-4.814 3.705-1.846 6.661-1.335 7.171-.21.733 1.604-1.576 4.59-5.431 5.024-1.47.165-2.235-.404-2.431-.615-.209-.225-.239-.24-.314-.194-.12.06-.045.255 0 .375.12.3.585.825 1.396 1.095.704.225 2.43.359 4.5-.45 2.324-.899 4.139-3.405 3.614-5.505l.073.067z"/></symbol><symbol id="icon-stackoverflow" viewBox="0 0 24 24"><path d="M18.986 21.865v-6.404h2.134V24H1.844v-8.539h2.13v6.404h15.012zM6.111 19.731H16.85v-2.137H6.111v2.137zm.259-4.852l10.48 2.189.451-2.07-10.478-2.187-.453 2.068zm1.359-5.056l9.705 4.53.903-1.95-9.706-4.53-.902 1.936v.014zm2.715-4.785l8.217 6.855 1.359-1.62-8.216-6.853-1.35 1.617-.01.001zM15.751 0l-1.746 1.294 6.405 8.604 1.746-1.294L15.749 0h.002z"/></symbol><symbol id="icon-staticman" viewBox="0 0 24 24"><path d="M17.17 3.046l-.063.002c-.067 0-.133.003-.2.006a2.41 2.41 0 0 0-.117.01c-.05.003-.1.01-.152.015l-.123.015c-.053.008-.106.018-.16.028-.075.014-.15.03-.224.048-.027.008-.055.014-.083.02l-.174.05c-.01.004-.023.007-.035.01a4.381 4.381 0 0 0-2.51 2.05.864.864 0 0 0-.042.07c-.01.023-.024.043-.036.066l-.016.037c-.3.595-.47 1.267-.47 1.978v.8c-.207 0-.373.165-.373.37s.168.373.373.373v2.868a6.409 6.409 0 0 0-3.514 1.488l-.01.01c-.004.003-.01.01-.014.012a5.273 5.273 0 0 1-.817.638c-.005.003-.007.007-.01.01-.26.16-.474.277-.678.37-.16.07-.322.128-.494.182l-.067.02a5.33 5.33 0 0 1-1.624.252 5.336 5.336 0 0 1-3.66-1.44c.455.16.935.243 1.425.243a4.314 4.314 0 0 0 2.904-1.13c.143.684.444 1.327.878 1.877.196-.06.378-.12.553-.2.058-.026.118-.055.178-.086a3.783 3.783 0 0 1-.96-2.463c-.002-.16-.107-.3-.26-.35s-.32.007-.414.136a3.571 3.571 0 0 1-2.88 1.47 3.563 3.563 0 0 1-2.63-1.164.372.372 0 0 0-.641.323l.012.055v.003c.883 3.818 3.737 6.984 7.446 8.26.84.29 1.72.483 2.613.57l.037.002a.37.37 0 0 0 .372-.372v-1.985a6.6 6.6 0 0 1 1.597-4.323l-.407-.242.488.147 2.503.714c.132.06.267.115.404.166v-.8a4.247 4.247 0 0 1-1.59-1.193v-4.07h.15v1.01c0 .733.595 1.33 1.328 1.33h.532c.69 0 1.258-.53 1.323-1.202a.33.33 0 0 0 .007-.064.323.323 0 1 1 .648 0 1.331 1.331 0 0 0 1.329 1.267h.533c.733 0 1.33-.596 1.33-1.33v-1.01h.146v4.072c-.414.508-.96.914-1.59 1.192v.8c.138-.05.273-.106.404-.167l2.502-.715.005.006.505-.15-.42.248c.365.428.674.897.92 1.4.063.13.193.21.335.21h.022c.15-.01.28-.108.33-.25.103-.297.155-.61.155-.933 0-1.44-1.04-2.624-2.424-2.84V8.994a.37.37 0 1 0 0-.742v-.8c0-.265-.025-.526-.07-.78-.002-.006 0-.012-.002-.018l-.014-.075-.005-.024a4.365 4.365 0 0 0-1.19-2.21 4.377 4.377 0 0 0-.893-.693c-.033-.02-.067-.036-.1-.055l-.06-.033c-.052-.027-.103-.054-.154-.078-.018-.01-.036-.016-.054-.025a3.605 3.605 0 0 0-.266-.114c-.036-.014-.07-.028-.108-.04a3.402 3.402 0 0 0-.257-.083c-.037-.012-.074-.022-.11-.032a3.678 3.678 0 0 0-.311-.068c-.06-.01-.122-.022-.183-.03-.035-.006-.07-.01-.107-.015l-.157-.016-.11-.008c-.06-.004-.122-.005-.183-.006l-.072-.003zm3.14 1.814s-.076.077-.214.21c-.068.067-.156.143-.254.232-.098.09-.214.185-.34.29-.09.07-.19.145-.29.22.36.723.945 1.193 1.602 1.274.012.12.018.243.018.366v.798h-2.615a.371.371 0 0 0-.355-.266H16.48a.371.371 0 0 0-.355.266H13.51v-.798c0-.398.064-.78.182-1.14.117.112.243.212.378.3.04.02.12.063.242.116.173.077.43.162.746.21.158.024.33.037.514.038.045 0 .094 0 .136-.003l.145-.01c.1-.003.193-.02.29-.03s.2-.035.3-.052c.1-.02.2-.048.302-.07.1-.03.202-.06.303-.092.1-.036.202-.07.3-.108.2-.076.398-.16.588-.252l.28-.14.272-.145c.175-.1.344-.198.5-.297.08-.047.155-.1.23-.146s.144-.092.21-.14c.132-.093.258-.173.364-.252.107-.078.203-.143.277-.202.15-.115.24-.178.24-.178zm-3.46 3.87h.64v.212h-.64V8.73zm-2.45.265h1.7v1.01a.585.585 0 0 1-.584.585h-.532a.585.585 0 0 1-.585-.585v-1.01zm3.84 0h1.7v1.01a.585.585 0 0 1-.585.585h-.532a.585.585 0 0 1-.585-.585v-1.01zm-2.99.16a.424.424 0 1 0 .001.848.425.425 0 0 0 .38-.615c-.04.05-.1.083-.166.083a.213.213 0 0 1-.213-.213.2.2 0 0 1 .03-.103l-.03-.003zm3.84 0a.424.424 0 1 0 .379.233.213.213 0 1 1-.354-.233c-.01 0-.02-.003-.028-.003zm-3.436 4.356a.397.397 0 0 0-.186.068.37.37 0 0 0-.158.304v2.02a.375.375 0 0 0 .373.372.362.362 0 0 0 .125-.022l1.364-.487 1.364.487a.374.374 0 0 0 .499-.35v-2.02a.373.373 0 0 0-.498-.35l-1.363.487-1.363-.488a.404.404 0 0 0-.087-.02.291.291 0 0 0-.066 0zm.4.9l.744.266v.432l-.744.266v-.964zm2.233 0v.964l-.744-.266v-.432l.744-.266z"/></symbol><symbol id="icon-stopwatch" viewBox="15 309.7 16 16"><path d="M23.9 315.1v3.6c0 .5-.4.9-.9.9s-.9-.4-.9-.9v-3.6h1.8z"/><path d="M30.1 317.7c.5 3.9-2.3 7.5-6.2 7.9-3.9.5-7.5-2.3-7.9-6.2-.5-3.9 2.3-7.5 6.2-7.9v-1.8H24v1.8c1.1.1 2.7.7 3.5 1.4l1.3-1.3 1.3 1.3-1.3 1.3c.5.9 1.2 2.5 1.3 3.5zm-1.8.9c0-2.9-2.4-5.3-5.3-5.3s-5.3 2.4-5.3 5.3 2.4 5.3 5.3 5.3 5.3-2.3 5.3-5.3z"/></symbol><symbol id="icon-ted" viewBox="0 0 24 24"><path d="M2.431 9.886H0V7.665h7.53v2.221H5.1v6.45H2.431v-6.45zm5.514-2.221h7.31v2.221h-4.638v1.083h4.638v2.063h-4.638v1.08h4.638v2.225h-7.31V7.665zm10.43 6.451h1.046c1.664 0 1.907-1.352 1.907-2.166 0-.545-.179-2.063-2.115-2.063h-.854v4.23l.016-.001zm-2.67-6.451h4.384C22.98 7.665 24 9.8 24 11.985c0 2.66-1.409 4.351-4.434 4.351h-3.861V7.663v.002z"/></symbol><symbol id="icon-travisci" viewBox="0 0 24 24"><path d="M15.044 12.42l.015.01c.12 0 .225-.106.21-.226a.22.22 0 0 0-.22-.22h-.006a.222.222 0 0 0-.226.215v.01c0 .12.106.224.226.21zm-5.814-.27h-.017a.218.218 0 0 0-.217.223v.007c.002.122.104.22.227.218h.003a.23.23 0 0 0 .226-.23.222.222 0 0 0-.223-.22zm1.034 3.525l1.79.136 1.665-.352c.12-.024.24 0 .34.07l1.228.84 1.26.118c.135-.3.24-.63.314-.96h-.06l-3.42-.464a.443.443 0 0 1-.36-.285l-.614-1.77c-.075-.046-.465-.016-.645.074l-.63 1.71a.407.407 0 0 1-.315.286l-3.345.78-.06.015c.12.406.285.796.48 1.186l1.02-.285-.033-.038 1.054-.944a.43.43 0 0 1 .33-.113z"/><path d="M16.893 17.37l-.078.034-1.73-.17a.781.781 0 0 1-.202-.075l-1.155-.796-1.53.315c-.045 0-.075.013-.12 0l-1.665-.137-.99.886a.403.403 0 0 1-.165.09l-1.785.51a.608.608 0 0 1-.225 0l1.05 1.184 3.495-.495.3-.616c.06-.113.163-.2.285-.24a.449.449 0 0 1 .36.06l1.32.886 2.94-.675.63-1.005-.526.21c-.075.014-.135.03-.21.03zm-4.475 1.978l.002.012a.448.448 0 0 1-.336.24l-1.12.158c.353.105.72.16 1.102.16a3.86 3.86 0 0 0 1.477-.3l-.945-.63-.18.36zm-6.315-7.565h.002l.42 2.44.93.704 2.915-.675.585-1.647a.48.48 0 0 1 .16-.21c.05-.034.503-.35 1.065-.35.66 0 .948.426.98.477l.587 1.676 2.98.408.925-.64.615-2.136c-3.974-.9-8.19-.914-12.164-.047zm3 1.84l.002-.01h-.27c-.424 0-.698-.018-.94.11.01-.017.117-.25.496-.347a1.124 1.124 0 0 1-.074-.404c-.026-.686.4-1.25.837-1.256.438 0 .742.555.75 1.245.006.692-.36.647-.8.662zm5.99-2.09v.017c.44-.015.84.525.892 1.216a.89.89 0 0 1-.05.428c.403-.047.5.23.5.244-.294-.15-.618.03-1.204.047-.442.015-.806.015-.833-.676-.025-.69.26-1.26.696-1.276z"/><path d="M12 0C5.373 0 0 5.373 0 12s5.373 12 12 12 12-5.373 12-12S18.627 0 12 0zm8.098 10.38c-.06.57-.195 1.064-.42 1.454a.442.442 0 0 1-.494.21l-.045-.015h-.017l-.045-.016-.645 2.294a.536.536 0 0 1-.18.27l-.466.33v.135c-.06.39-.15.78-.255 1.155l.886-.33c.18-.075.374-.015.51.135a.442.442 0 0 1 .03.52l-1.41 2.278c-.06.1-.157.17-.27.2l-1.74.404c-.99.875-2.205 1.4-3.48 1.4L12 20.746h-.01c-.988 0-1.903-.31-2.698-.82l-1.245.174h-.06a.43.43 0 0 1-.337-.15l-2.52-2.82a.447.447 0 0 1-.03-.554.462.462 0 0 1 .54-.15l1.11.466a6.787 6.787 0 0 1-.507-1.605.752.752 0 0 1 0-.15l-.51-.39a.382.382 0 0 1-.17-.285l-.43-2.535-.34.09c-.04.015-.074.015-.12.015a.443.443 0 0 1-.374-.225c-.226-.39-.37-.87-.42-1.455-.062-.615-.022-1.125.128-1.5a.41.41 0 0 1 .24-.255c.387-.165.78-.3 1.182-.435.585-2.775 3.343-4.847 6.553-4.847s5.97 2.07 6.555 4.86c.39.135.78.27 1.17.435a.43.43 0 0 1 .255.256c.15.388.195.898.135 1.513z"/><path d="M18.163 9.092l.075-.074h-.014a.462.462 0 0 1-.27-.086 19.637 19.637 0 0 0-3.57-.755.421.421 0 0 1-.395-.444c0-.012 0-.024.003-.036a.451.451 0 0 1 .126-.257.481.481 0 0 1-.17.034h-.824v.675c.21.044.36.224.36.434l-.033-.025v1.106c0 .244-.21.444-.45.444H11.19c-.24 0-.44-.21-.44-.45V8.55c0-.214.15-.39.35-.435v-.66h-.824a.44.44 0 0 1-.434-.446V5.545c0-.245.21-.443.45-.443h3.658c.245 0 .444.21.444.45v1.47c0 .125-.05.236-.128.317a.463.463 0 0 1 .223-.033c1.05.135 2.083.33 3.09.615-.707-2.13-2.957-3.66-5.55-3.66-2.597 0-4.847 1.53-5.55 3.675.913-.255 1.86-.435 2.803-.57.255-.03.465.15.495.39.03.24-.15.465-.39.495-1.14.15-2.25.404-3.33.734a.26.26 0 0 1-.15.045c-.375.12-.735.256-1.11.406-.045.21-.06.51-.015.945.03.316.09.57.18.81a29.085 29.085 0 0 1 14.085 0c.075-.224.136-.494.165-.794.03-.375.03-.69-.03-.93-.337-.13-.677-.256-1.02-.374z"/><path d="M14.12 7.44a.452.452 0 0 0 .146-.1.389.389 0 0 0-.146.1zm-3.395-.873h.15a.44.44 0 0 1 .44-.427h.235c.246 0 .446.2.446.444V8.55c0 .213-.15.39-.36.435v.23h.93v-.23a.441.441 0 0 1-.355-.435V6.585c0-.246.21-.446.45-.446h.24c.24 0 .437.19.45.427h.134v-.58h-2.76v.58z"/></symbol><symbol id="icon-twitter" viewBox="0 0 24 24"><path d="M23.954 4.569a10 10 0 0 1-2.825.775 4.958 4.958 0 0 0 2.163-2.723c-.951.555-2.005.959-3.127 1.184a4.92 4.92 0 0 0-8.384 4.482C7.691 8.094 4.066 6.13 1.64 3.161a4.822 4.822 0 0 0-.666 2.475c0 1.71.87 3.213 2.188 4.096a4.904 4.904 0 0 1-2.228-.616v.061a4.923 4.923 0 0 0 3.946 4.827 4.996 4.996 0 0 1-2.212.085 4.937 4.937 0 0 0 4.604 3.417 9.868 9.868 0 0 1-6.102 2.105c-.39 0-.779-.023-1.17-.067a13.995 13.995 0 0 0 7.557 2.209c9.054 0 13.999-7.496 13.999-13.986 0-.209 0-.42-.015-.63a9.936 9.936 0 0 0 2.46-2.548l-.047-.02z"/></symbol><symbol id="icon-visualstudiocode" viewBox="0 0 24 24"><path d="M24 2.5v19L18 24 0 18.5v-.561l18 1.545V0zM1 13.111L4.385 10 1 6.889l1.418-.827L5.853 8.65 12 3l3 1.456v11.088L12 17l-6.147-5.65-3.434 2.589zM7.644 10L12 13.283V6.717z"/></symbol><symbol id="icon-vlcmediaplayer" viewBox="0 0 24 24"><path d="M11.891 13.463c3.757 0 4.854-1.347 5.065-1.674l-1.36-4.334c-.36.34-1.327.937-3.68.937-2.292 0-3.188-.567-3.52-.91l-1.39 4.422c.228.361 1.255 1.56 4.885 1.56zm.026-9.656a6.143 6.143 0 0 0 2.376-.507L13.435.566a.781.781 0 0 0-.406-.437S12.914 0 12.032 0s-1.055.136-1.055.136a.733.733 0 0 0-.41.43l-.884 2.815a6.77 6.77 0 0 0 2.234.426zM22.59 23.319a.395.395 0 0 0-.016-.16l-2.334-7.632a.647.647 0 0 0-.583-.431h-1.663l.2.64c-.24.485-1.488 2.38-6.303 2.38-4.6 0-5.828-1.73-6.11-2.308l.223-.712H4.343a.647.647 0 0 0-.583.431L1.426 23.16a.398.398 0 0 0-.017.15l-.002.02a1.843 1.843 0 0 0 .024.226.528.528 0 0 0 .51.445H22.06a.528.528 0 0 0 .51-.445 1.843 1.843 0 0 0 .023-.226z"/></symbol><symbol id="icon-whatsapp" viewBox="0 0 24 24"><path d="M17.498 14.382c-.301-.15-1.767-.867-2.04-.966-.273-.101-.473-.15-.673.15-.197.295-.771.964-.944 1.162-.175.195-.349.21-.646.075-.3-.15-1.263-.465-2.403-1.485-.888-.795-1.484-1.77-1.66-2.07-.174-.3-.019-.465.13-.615.136-.135.301-.345.451-.523.146-.181.194-.301.297-.496.1-.21.049-.375-.025-.524-.075-.15-.672-1.62-.922-2.206-.24-.584-.487-.51-.672-.51-.172-.015-.371-.015-.571-.015-.2 0-.523.074-.797.359-.273.3-1.045 1.02-1.045 2.475s1.07 2.865 1.219 3.075c.149.195 2.105 3.195 5.1 4.485.714.3 1.27.48 1.704.629.714.227 1.365.195 1.88.121.574-.091 1.767-.721 2.016-1.426.255-.705.255-1.29.18-1.425-.074-.135-.27-.21-.57-.345m-5.446 7.443h-.016c-1.77 0-3.524-.48-5.055-1.38l-.36-.214-3.75.975 1.005-3.645-.239-.375a9.869 9.869 0 0 1-1.516-5.26c0-5.445 4.455-9.885 9.942-9.885a9.865 9.865 0 0 1 7.021 2.91 9.788 9.788 0 0 1 2.909 6.99c-.004 5.444-4.46 9.885-9.935 9.885M20.52 3.449C18.24 1.245 15.24 0 12.045 0 5.463 0 .104 5.334.101 11.893c0 2.096.549 4.14 1.595 5.945L0 24l6.335-1.652a12.062 12.062 0 0 0 5.71 1.447h.006c6.585 0 11.946-5.336 11.949-11.896 0-3.176-1.24-6.165-3.495-8.411"/></symbol><symbol id="icon-windows" viewBox="0 0 24 24"><path d="M0 3.449L9.75 2.1v9.451H0m10.949-9.602L24 0v11.4H10.949M0 12.6h9.75v9.451L0 20.699M10.949 12.6H24V24l-12.9-1.801"/></symbol><symbol id="icon-xbox" viewBox="0 0 24 24"><path d="M4.102 21.033A11.947 11.947 0 0 0 12 24a11.96 11.96 0 0 0 7.902-2.967c1.877-1.912-4.316-8.709-7.902-11.417-3.582 2.708-9.779 9.505-7.898 11.417zm11.16-14.406c2.5 2.961 7.484 10.313 6.076 12.912A11.942 11.942 0 0 0 24 12.004a11.95 11.95 0 0 0-3.57-8.536s-.027-.022-.082-.042a.824.824 0 0 0-.281-.045c-.592 0-1.985.434-4.805 3.246zM3.654 3.426c-.057.02-.082.041-.086.042A11.956 11.956 0 0 0 0 12.004c0 2.854.998 5.473 2.661 7.533-1.401-2.605 3.579-9.951 6.08-12.91-2.82-2.813-4.216-3.245-4.806-3.245a.725.725 0 0 0-.281.046v-.002zM12 3.551S9.055 1.828 6.755 1.746c-.903-.033-1.454.295-1.521.339C7.379.646 9.659 0 11.984 0H12c2.334 0 4.605.646 6.766 2.085-.068-.046-.615-.372-1.52-.339C14.946 1.828 12 3.545 12 3.545v.006z"/></symbol><symbol id="icon-youtube" viewBox="0 0 24 24"><path class="a" d="M23.495 6.205a3.007 3.007 0 0 0-2.088-2.088c-1.87-.501-9.396-.501-9.396-.501s-7.507-.01-9.396.501A3.007 3.007 0 0 0 .527 6.205a31.247 31.247 0 0 0-.522 5.805 31.247 31.247 0 0 0 .522 5.783 3.007 3.007 0 0 0 2.088 2.088c1.868.502 9.396.502 9.396.502s7.506 0 9.396-.502a3.007 3.007 0 0 0 2.088-2.088 31.247 31.247 0 0 0 .5-5.783 31.247 31.247 0 0 0-.5-5.805zM9.609 15.601V8.408l6.264 3.602z"/></symbol></svg>